<?xml version="1.0" encoding="utf-8"?>
<!-- Generator: Adobe Illustrator 22.0.1, SVG Export Plug-In . SVG Version: 6.00 Build 0)  -->
<svg version="1.1" id="Livello_1" xmlns="http://www.w3.org/2000/svg" xmlns:xlink="http://www.w3.org/1999/xlink" x="0px" y="0px"
	 viewBox="0 0 1017 328" style="enable-background:new 0 0 1017 328;" xml:space="preserve">
<style type="text/css">
	.st0{fill:#FFEA00;}
</style>
<g>
	<g>
		<path class="st0" d="M947,319h-0.6c-3.9-7.8-8-15.5-12.3-23c-1.4-2.6-2.9-5.1-4.4-7.6c-0.2-0.3-0.4-0.6-0.5-0.9
			c-0.7-1.1-1.4-2.3-2-3.4h0c-0.8-1.4-1.7-2.8-2.6-4.2c-2.2-3.6-4.5-7.3-6.9-10.8c-1.6-2.5-3.2-4.9-4.9-7.3c-1.6-2.4-3.3-4.8-5-7.2
			c-0.1,0-0.1-0.1-0.1-0.1l-0.4-0.5c-0.9-1.2-1.7-2.4-2.6-3.6c-0.1-0.1-0.1-0.2-0.2-0.3c-0.8-1.1-1.6-2.2-2.4-3.3
			c-1.4-1.9-2.8-3.8-4.2-5.7c-0.2-0.2-0.4-0.5-0.5-0.7c-1.4-1.9-2.9-3.8-4.3-5.6c-1.4-1.7-2.7-3.4-4-5.1c-1.4-1.7-2.8-3.5-4.3-5.2
			c-0.2-0.2-0.3-0.4-0.5-0.6h0c-0.1-0.1-0.1-0.1-0.2-0.2c-1-1.2-2-2.5-3-3.6c-0.9-1.1-1.8-2.1-2.6-3.1c-1.1-1.2-2.1-2.4-3.2-3.6
			c-0.4-0.5-0.8-0.9-1.2-1.3c-0.2-0.2-0.4-0.5-0.6-0.7c-0.9-1-1.8-2-2.7-3c-1.5-1.7-3-3.3-4.5-5c-2.1-2.3-4.3-4.5-6.5-6.8
			c0,0,0,0,0,0c-1.2-1.2-2.4-2.4-3.5-3.6c-0.9-0.9-1.8-1.8-2.7-2.7c-0.9-0.9-1.8-1.8-2.7-2.6c-1.5-1.5-3-2.9-4.5-4.4
			c-3.9-3.7-7.8-7.3-11.7-10.9c-0.1-0.1-0.2-0.1-0.3-0.2c-1.2-1.1-2.5-2.2-3.7-3.3c-0.3-0.3-0.6-0.6-1-0.9c-0.5-0.5-1.1-0.9-1.6-1.4
			c-2.6-2.2-5.2-4.4-7.8-6.5c-0.2-0.2-0.5-0.4-0.7-0.6c-0.9-0.8-1.8-1.5-2.7-2.3c-2.5-2.1-5.1-4.2-7.7-6.2c-0.2-0.1-0.3-0.3-0.5-0.4
			c-1.3-1-2.5-2-3.9-3c-0.4-0.3-0.7-0.5-1-0.8c-0.5-0.4-1-0.8-1.5-1.1c-1.7-1.3-3.5-2.6-5.2-3.9c-1.4-1-2.7-2-4.1-3
			c-3.1-2.2-6.2-4.4-9.4-6.6c0,0-0.1,0-0.1-0.1c-0.2-0.1-0.4-0.3-0.6-0.4c-1.3-0.9-2.7-1.8-4.1-2.7c-0.8-0.5-1.6-1.1-2.4-1.6
			c-1-0.7-2-1.3-2.9-1.9c-1.8-1.2-3.6-2.3-5.4-3.5c-3.3-2.2-6.7-4.2-10.1-6.2c-0.3-0.2-0.6-0.3-0.9-0.5c-1.4-0.9-2.8-1.7-4.2-2.5
			c-0.5-0.3-0.9-0.5-1.4-0.8c-0.3-0.2-0.6-0.3-0.9-0.5c-0.9-0.5-1.7-1-2.6-1.5c-2.4-1.4-4.9-2.7-7.3-4.1c-2.7-1.5-5.5-2.9-8.3-4.4
			c-0.4-0.2-0.7-0.4-1-0.5c-1.4-0.8-2.8-1.5-4.3-2.2l-2.2-1.1c-2.1-1-4.1-2-6.3-3c-0.1-0.1-0.3-0.2-0.4-0.2
			c-1.7-0.8-3.3-1.6-5.1-2.3c-0.9-0.4-1.7-0.8-2.6-1.2c-1.1-0.5-2.3-1.1-3.5-1.6c-0.4-0.2-0.8-0.3-1.2-0.5c-1.4-0.6-2.8-1.3-4.3-1.9
			c-0.4-0.1-0.7-0.3-1.1-0.5c-0.2-0.1-0.5-0.2-0.7-0.3c-0.1,0-0.2-0.1-0.3-0.1c-1.4-0.6-2.9-1.2-4.3-1.8c-1.3-0.6-2.6-1.1-3.9-1.6
			c-3.1-1.2-6.2-2.5-9.2-3.6c-0.4-0.2-0.9-0.3-1.3-0.5c-1.5-0.5-3-1.1-4.4-1.6c-0.7-0.3-1.4-0.5-2.1-0.8c-2.2-0.8-4.4-1.6-6.6-2.3
			c-0.8-0.3-1.6-0.6-2.4-0.9c-0.1,0-0.1,0-0.1,0c0,0-0.1,0-0.1,0c0,0-0.1,0-0.1,0c-2-0.7-4-1.3-6-2c-0.5-0.2-1.1-0.4-1.6-0.6
			c-0.5-0.1-1-0.3-1.4-0.4c-1.5-0.5-3-0.9-4.4-1.4c-0.5-0.1-1-0.3-1.5-0.5c-0.2,0-0.3-0.1-0.5-0.2c-0.1,0-0.3-0.1-0.4-0.1
			c-1.5-0.5-3-0.9-4.6-1.3c-1.8-0.5-3.6-1.1-5.4-1.5c-2.1-0.6-4.2-1.2-6.3-1.7l-1.5-0.4c-1.5-0.4-3-0.8-4.5-1.1
			c-0.6-0.2-1.3-0.3-1.9-0.5c-1.4-0.3-2.8-0.7-4.1-1c-2.2-0.5-4.4-1-6.7-1.5c-1.9-0.4-3.7-0.8-5.6-1.2c-0.5-0.1-1-0.2-1.6-0.3
			c-1.5-0.3-3-0.6-4.5-0.9c-0.5-0.1-1.1-0.2-1.7-0.3c-0.1,0-0.1,0-0.2,0c-2.4-0.5-4.8-0.9-7.3-1.3c-0.4-0.1-0.9-0.2-1.4-0.3
			c-0.3,0-0.6-0.1-0.9-0.1c0,0,0,0-0.1,0c-1.9-0.4-3.8-0.6-5.7-0.9c-0.3-0.1-0.5-0.1-0.8-0.2c-0.5-0.1-1.1-0.2-1.6-0.3
			c-1.5-0.2-3-0.5-4.5-0.6c-0.6-0.1-1.2-0.2-1.8-0.3c-0.9-0.1-1.9-0.3-2.8-0.4c-1.5-0.2-3.1-0.4-4.7-0.6c-0.1,0-0.2,0-0.3,0
			c0,0,0,0-0.1,0c-0.2,0-0.4,0-0.7-0.1c-1.7-0.2-3.4-0.4-5.2-0.6c-0.7-0.1-1.4-0.2-2.1-0.2c-0.6-0.1-1.1-0.1-1.7-0.1
			c-0.2,0-0.5,0-0.7-0.1c-1.1-0.1-2.3-0.2-3.3-0.3c-0.2,0-0.3,0-0.5,0c-0.1,0-0.2,0-0.4,0c-0.5,0-1-0.1-1.4-0.1
			c-5.3-0.5-10.5-0.9-15.8-1.1c-0.6,0-1.1-0.1-1.7-0.1c-1.5-0.1-3-0.2-4.5-0.2h-0.3c-0.5,0-1-0.1-1.5-0.1c-0.7,0-1.4,0-2.1-0.1
			c-1.2,0-2.5-0.1-3.7-0.1c-3.3-0.1-6.6-0.1-9.9-0.2c-0.6,0-1.2,0-1.7,0H509c-1,0-1.9,0-2.8,0c-0.6,0-1.2,0-1.7,0
			c-2.6,0-5.3,0.1-7.9,0.1c-2.5,0-4.9,0.1-7.3,0.2h-0.2c-0.1,0-0.2,0-0.4,0c-0.3,0-0.7,0-1,0c-0.3,0-0.5,0-0.8,0
			c-1.5,0-3,0.1-4.5,0.2c-0.6,0-1.1,0.1-1.7,0.1c-5.3,0.3-10.5,0.7-15.7,1.1c-0.6,0.1-1.2,0.1-1.8,0.2c-1.5,0.1-3,0.3-4.5,0.5
			c-0.6,0.1-1.1,0.1-1.7,0.2c-1.5,0.1-3.1,0.3-4.6,0.5c-3.8,0.4-7.5,0.9-11.2,1.4c-0.6,0.1-1.2,0.2-1.8,0.3c-1.5,0.2-3,0.4-4.5,0.7
			c-0.5,0.1-1.1,0.2-1.6,0.2c-2.1,0.3-4.3,0.6-6.4,1c-1.1,0.2-2.2,0.4-3.4,0.5c-0.1,0-0.3,0-0.5,0.1c-1.3,0.2-2.6,0.5-3.9,0.7
			c-0.7,0.1-1.3,0.2-2,0.4c-0.6,0.1-1.3,0.2-1.9,0.4c-1.5,0.3-3,0.5-4.5,0.9c-0.5,0.1-1,0.2-1.6,0.3c-2,0.4-4,0.8-6,1.3
			c-0.1,0-0.2,0-0.4,0.1c-1.3,0.2-2.6,0.5-3.9,0.9c-0.3,0.1-0.6,0.1-0.9,0.2c-1.7,0.4-3.4,0.8-5.1,1.2c-0.4,0.1-0.8,0.2-1.2,0.3
			c-0.1,0-0.3,0-0.4,0.1c-0.1,0-0.2,0-0.4,0.1c-1.5,0.3-3,0.7-4.5,1.1c-0.5,0.1-1,0.3-1.5,0.4c-2.9,0.7-5.7,1.5-8.5,2.3
			c-2.7,0.7-5.3,1.5-8,2.3c-0.5,0.2-1,0.3-1.5,0.5c-0.2,0-0.3,0.1-0.5,0.1c-1.5,0.5-2.9,0.9-4.4,1.4c-0.5,0.2-0.9,0.3-1.4,0.5
			c-2.4,0.8-4.8,1.5-7.1,2.3c-1.7,0.6-3.4,1.2-5.2,1.8c-1.5,0.5-3,1.1-4.6,1.6c-0.7,0.3-1.4,0.5-2.1,0.8c-0.1,0-0.2,0.1-0.3,0.1
			c-1.4,0.5-2.7,1-4.1,1.5c-0.4,0.2-0.9,0.3-1.3,0.5c-2.6,1-5.1,1.9-7.7,3c-0.2,0-0.4,0.1-0.6,0.2c-0.1,0-0.2,0.1-0.3,0.1
			c-2.9,1.2-5.8,2.4-8.6,3.6c-0.7,0.3-1.4,0.6-2.2,0.9c-1.4,0.6-2.9,1.2-4.3,1.9c-0.4,0.2-0.8,0.3-1.2,0.5c-3,1.4-6.1,2.7-9,4.2
			c-2.9,1.3-5.7,2.7-8.5,4.1c-0.7,0.4-1.5,0.7-2.2,1.1c-1.5,0.7-2.9,1.5-4.3,2.2c-0.4,0.2-0.7,0.3-1,0.5c-6.1,3.1-12,6.3-17.9,9.7
			c-0.8,0.4-1.5,0.9-2.3,1.3c-1.4,0.8-2.8,1.6-4.2,2.4c-0.3,0.2-0.6,0.3-0.9,0.5c-0.1,0.1-0.3,0.2-0.4,0.3c-3.1,1.9-6.2,3.7-9.2,5.6
			c-0.2,0.1-0.4,0.2-0.6,0.4c-2.7,1.7-5.4,3.4-8,5.1c-0.8,0.5-1.6,1.1-2.4,1.6c-1.4,0.9-2.7,1.8-4,2.7c-0.2,0.1-0.5,0.3-0.7,0.5
			c-2.8,1.9-5.6,3.9-8.3,5.8c-1.9,1.4-3.8,2.7-5.6,4.1c-1.5,1.1-3,2.2-4.5,3.3c-0.9,0.6-1.7,1.3-2.5,1.9c-1.3,1-2.6,2-3.9,3
			c-0.1,0.1-0.1,0.1-0.2,0.2c-0.1,0.1-0.2,0.1-0.3,0.2c-1.5,1.2-3,2.3-4.4,3.5c-1.5,1.2-3,2.4-4.6,3.7c-1,0.8-2,1.6-3.1,2.6
			c-1.5,1.3-3.1,2.6-4.6,3.8c-0.7,0.5-1.3,1.1-2,1.7c-0.9,0.8-1.7,1.5-2.6,2.3c-1.2,1.1-2.5,2.2-3.7,3.3c-0.1,0.1-0.2,0.2-0.3,0.2
			c-6.4,5.6-12.6,11.5-18.7,17.5c-0.9,0.9-1.8,1.8-2.7,2.6c-1.2,1.2-2.3,2.4-3.5,3.6c0,0,0,0,0,0.1c-1.4,1.4-2.7,2.8-4.1,4.3
			c-2.2,2.3-4.4,4.6-6.5,6.9c-0.4,0.4-0.8,0.8-1.2,1.2c-0.2,0.2-0.3,0.4-0.5,0.5c-1.3,1.4-2.5,2.8-3.8,4.2c-0.9,0.9-1.7,1.8-2.5,2.8
			c-0.9,1-1.8,2.1-2.7,3.1c-1.1,1.2-2.1,2.4-3.1,3.6c-0.1,0.1-0.1,0.1-0.2,0.2c-6.1,7.3-12.1,14.7-17.8,22.4
			c-0.9,1.2-1.8,2.4-2.7,3.6c-0.9,1.2-1.7,2.4-2.6,3.6c-0.1,0.2-0.2,0.3-0.4,0.5c-1.7,2.3-3.4,4.7-5,7.1c-1.7,2.4-3.3,4.8-4.9,7.2
			c-1.6,2.4-3.2,4.9-4.8,7.3c-0.7,1.1-1.4,2.2-2.1,3.3l-0.5,0c0.7-1.2,1.5-2.3,2.2-3.5c1.4-2.2,3.1-4.8,4.8-7.3
			c1.5-2.2,3.1-4.6,4.9-7.2c1.6-2.4,3.3-4.8,5-7.1c0.1-0.1,0.1-0.2,0.2-0.3l-2.8-0.5l1.6-2.2c1-1.4,2-2.8,3-4.1l0.6-0.9l2.9,0.5
			c5.5-7.4,11.6-15,17.9-22.6c0,0,0,0,0,0l-2.7-0.7l1.7-2.1c1.1-1.4,2.2-2.6,3.4-3.9l0.7-0.8l2.7,0.7c0.9-1,1.8-2,2.7-3
			c1.2-1.4,2.5-2.8,3.8-4.2c0.1-0.2,0.3-0.4,0.5-0.6c0.4-0.4,0.8-0.8,1.2-1.2c2.4-2.7,4.5-4.9,6.5-6.9c1.3-1.4,2.6-2.7,3.9-4.1
			l-2.5-0.9l1.9-1.9c1.1-1.1,2.2-2.3,3.4-3.4l0.8-0.8l1.2,0.3l1.6,0.6c6.2-6.1,12.4-12,18.7-17.5l-2.3-1.1l1.9-1.8
			c0.8-0.7,1.5-1.4,2.3-2l2.3-2l2.4,1.1c0.7-0.6,1.4-1.2,2.2-1.8l4.6-3.8c1.1-1,2.1-1.8,3.1-2.6c1.3-1.1,2.6-2.1,3.9-3.1l0.7-0.5
			c1.3-1.1,2.7-2.2,4.1-3.3l0.1-0.1l-2.2-1.3l2-1.6c1.3-1,2.6-2,3.9-3l0.9-0.7l2.2,1.3c1.6-1.2,3.2-2.3,4.7-3.4
			c1.6-1.2,3.2-2.4,4.9-3.6l0.7-0.5c2.7-1.9,5.4-3.8,8.2-5.7l-2-1.4l2.1-1.4c1.2-0.8,2.5-1.7,3.8-2.5l1-0.7l1.2,0.5l1,0.7
			c3-2,5.7-3.7,8.2-5.3c0.1-0.1,0.3-0.2,0.4-0.3l0.2-0.1c3-1.9,6.1-3.8,9.2-5.6c0.1-0.1,0.2-0.1,0.3-0.2l-1.7-1.4l3.3-1.9
			c1-0.6,2-1.2,3-1.7l1-0.6l1.7,1.4c6.3-3.6,12.2-6.8,17.9-9.8l-1.5-1.5l2.1-1.1c1.4-0.7,2.8-1.5,4.3-2.2l1.1-0.6l1.5,1.5
			c2.9-1.5,5.9-2.8,8.7-4.1c2.7-1.3,5.6-2.6,8.9-4.1l-1.3-1.5l2-1c1.4-0.7,2.9-1.3,4.4-2l1.2-0.5l1.3,1.5c2.6-1.1,5.6-2.4,8.7-3.6
			c0,0,0.1,0,0.2-0.1c0,0,0.1,0,0.1,0l0.2-0.1c0.2-0.1,0.4-0.2,0.6-0.2c2.2-0.9,4.7-1.9,7.5-2.9l-1.1-1.5l2-0.8
			c1.4-0.6,2.8-1.1,4.2-1.5l1.3-0.7l1,1.2l0.3,0.5c1.6-0.6,3.1-1.1,4.6-1.6l5.3-1.8c2.3-0.8,4.7-1.6,7-2.3l-0.9-1.6l7.9-2.4l0.9,1.6
			c2.4-0.8,5-1.5,8.1-2.4c2.8-0.8,5.6-1.6,8.4-2.3l-0.7-1.6l2-0.5c1.5-0.4,3.1-0.8,4.6-1.2l1.4-0.3l0.7,1.6c0.3-0.1,0.6-0.1,0.9-0.2
			c1.4-0.3,2.9-0.7,4.4-1c0.1,0,0.3-0.1,0.4-0.1c0.1,0,0.3-0.1,0.4-0.1l0.4-0.1c1.2-0.3,2.3-0.6,3.5-0.8c0,0,0.1,0,0.2,0
			c0,0,0.1,0,0.1,0c2-0.4,4-0.9,6-1.3l-0.6-1.5l1.9-0.5c1.5-0.4,3-0.7,4.6-0.9l1.4-0.3l0.5,1.4l0.1,0.2c0.7-0.1,1.3-0.3,2-0.4
			c1.4-0.3,2.7-0.5,4-0.7c0,0,0.1,0,0.2,0c0,0,0.1,0,0.1,0l3.4-0.6c1.9-0.4,3.9-0.7,6.3-1.1l-0.4-1.5l1.9-0.3
			c1.5-0.3,3.1-0.5,4.6-0.7l1.5-0.2l0.4,1.6c4.3-0.6,7.9-1.1,11.3-1.4c1.4-0.2,2.8-0.3,4.1-0.5c0.1,0,0.3,0,0.5,0l-0.3-1.6l1.8-0.2
			c1.4-0.2,2.8-0.3,4.2-0.4l1.6-0.1l0.6,1.5l0,0c5.8-0.5,10.9-0.9,15.8-1.2l-0.1-1.6l1.8-0.1c1.5-0.1,3.1-0.2,4.6-0.2l1.6,0l0.1,1.6
			c0.1,0,0.3,0,0.4,0h0.2c2.4-0.1,4.9-0.2,7.3-0.2c2.6-0.1,5.2-0.1,7.9-0.1v-1.5l1.6-0.1c0.9,0,1.9,0,2.9,0h3.5v1.6
			c3.1,0,6.6,0.1,9.9,0.2L526,47c0.4,0,0.8,0,1.2,0c0.3,0,0.6,0,1,0l0.1-1.6l1.7,0c1.5,0,3.1,0.1,4.6,0.2l1.8,0.1l-0.1,1.6
			c5.1,0.2,10.3,0.6,15.8,1.1l0.3-1.5h1.5c0.2,0,0.5,0,0.9,0.1c1,0.1,2.1,0.1,3.1,0.3c0.5,0.1,0.7,0.1,0.8,0.1l1.7,0.3l-0.3,1.4
			c0.7,0.1,1.4,0.1,2.1,0.2c1.8,0.2,3.5,0.4,5.2,0.6c0.1,0,0.2,0,0.3,0c0.1,0,0.3,0,0.4,0c0.1,0,0.2,0,0.3,0l0.1,0
			c1.4,0.2,2.9,0.4,4.3,0.5l0.4,0.1c1,0.1,1.9,0.2,2.9,0.4l0.4-1.6l1.5,0.2c1.5,0.2,3,0.4,4.5,0.6l1.9,0.3l-0.3,1.7
			c0.3,0,0.5,0.1,0.8,0.1c1.9,0.3,3.8,0.5,5.7,0.9l1.4,0.2c0.3,0,0.7,0.1,1,0.2c2.3,0.4,4.8,0.8,7.3,1.3l0.6-1.6l1.4,0.3
			c1.6,0.3,3.1,0.6,4.6,0.9l1.9,0.4l-0.6,1.6c1.8,0.4,3.6,0.8,5.5,1.2c2.2,0.5,4.4,0.9,6.7,1.5l4.2,1l0.7-1.5l1.4,0.3
			c1.5,0.3,3.1,0.7,4.6,1.1l2,0.5l-0.7,1.6c2.1,0.5,4.2,1.1,6.3,1.7c1.7,0.4,3.4,0.9,5.4,1.5c1.7,0.4,3.3,0.9,4.6,1.3
			c0.2,0,0.3,0.1,0.5,0.1l0.1,0l0.9-1.6l7.9,2.4l-0.9,1.6c0.5,0.2,1,0.3,1.5,0.5c1.6,0.5,3.8,1.2,5.9,1.9l0.2,0l0.1,0
			c0.1,0,0.2,0.1,0.3,0.1c0.3,0.1,0.8,0.3,1.2,0.4c0.4,0.2,0.8,0.3,1.2,0.4c2.2,0.7,4.5,1.6,6.7,2.4l1.1-1.6l1.2,0.4
			c1.5,0.5,3,1,4.4,1.6l2.1,0.8l-1.1,1.6c3.4,1.3,6.4,2.5,9.1,3.6c1.3,0.5,2.6,1.1,3.9,1.6c1.5,0.6,3,1.2,4.5,1.9l1.3-1.5l1.2,0.5
			c1.5,0.6,3,1.2,4.4,1.9l2.1,0.9l-1.3,1.5c1.1,0.5,2.3,1,3.4,1.5l2.6,1.2c1.6,0.7,3.3,1.5,5.1,2.3c0.1,0,0.3,0.2,0.5,0.3
			c2,0.9,4.1,2,6.3,3l1.5-1.5l1.1,0.5c1.5,0.7,2.9,1.4,4.4,2.2l2,1.1l-1.5,1.5c2.7,1.4,5.4,2.8,8.2,4.3c2.5,1.3,4.9,2.7,7.4,4.1
			c0.7,0.4,1.4,0.8,2.1,1.2c0.2,0.1,0.4,0.2,0.6,0.3l1.7-1.4l1.1,0.6c1.4,0.8,2.8,1.6,4.2,2.5l2.1,1.3l-1.7,1.4
			c3.1,1.8,6.6,3.9,10,6.1c1.9,1.2,3.6,2.3,5.4,3.5c1,0.7,2.1,1.3,3.1,2l1.9-1.3l1,0.6c1.4,0.9,2.8,1.8,4.1,2.7l2.1,1.4l-1.9,1.4
			c2.8,1.9,5.7,4,9.3,6.5c1.4,1,2.8,2,4.1,3c1.9,1.4,3.7,2.7,5.4,4l2.2-1.3l0.9,0.7c1.3,1,2.6,2,3.9,3l2,1.6l-2.2,1.3
			c3,2.3,5.4,4.3,7.6,6.1c0.9,0.8,1.8,1.5,2.7,2.3c0.1,0.1,0.2,0.2,0.4,0.3c0.1,0.1,0.2,0.2,0.3,0.3c2.5,2.1,5.2,4.3,8,6.7l2.4-1.1
			l2,1.8c0.9,0.8,1.7,1.5,2.6,2.3l1.9,1.8L835,172c3.7,3.3,7.5,6.8,11.6,10.7l4.5,4.4c1,0.9,1.9,1.9,2.9,2.8l2.6-0.9l6.3,6.3l-2.6,1
			c2.1,2.2,4.2,4.5,6.3,6.7c1.5,1.7,3,3.3,4.5,5c0.6,0.6,1.2,1.3,1.7,1.9c0.3,0.3,0.6,0.7,0.9,1c0.1,0.1,0.2,0.2,0.3,0.3
			c0.1,0.1,0.2,0.2,0.3,0.3c0.3,0.3,0.5,0.6,0.8,0.9l0.4,0.4c1.1,1.3,2.2,2.6,3.3,3.8l2.7-0.7l0.7,0.8c0.9,1,1.8,2.1,2.7,3.2
			l2.3,2.8l-2.7,0.7l0,0c0.1,0.1,0.2,0.2,0.3,0.3c0.1,0.1,0.1,0.2,0.2,0.3c1.5,1.7,2.9,3.5,4.3,5.2c0.7,0.8,1.3,1.7,2,2.5
			c0.7,0.9,1.4,1.7,2,2.6l4.4,5.6c0.1,0.1,0.2,0.2,0.3,0.4c0.1,0.1,0.2,0.2,0.3,0.4c1.5,1.9,3,4,4.4,5.9l2.9-0.5l5.3,7.3l-2.9,0.5
			c0,0.1,0.1,0.1,0.1,0.2h0l0.1,0.2c1.8,2.5,3.5,4.9,5,7.2c1.8,2.6,3.4,5,4.9,7.3c2.2,3.3,4.5,7,7,11l2.9-0.3l4.7,7.6l-3,0.3
			c0.1,0.2,0.3,0.5,0.4,0.7l1.2,2.1c1.1,1.9,2.2,3.7,3.3,5.6C938.6,302.8,942.7,310.4,947,319z"/>
		<path class="st0" d="M934.6,295.8c-1.1-1.9-2.1-3.7-3.3-5.6l-1.2-2.1c-0.1-0.2-0.3-0.5-0.4-0.7c-0.3-0.5-0.6-1-0.9-1.5
			c-0.4-0.7-0.9-1.5-1.3-2.2l-0.2-0.2c-0.8-1.3-1.5-2.5-2.3-3.7c-2.5-4.1-4.8-7.7-7-11c-1.5-2.3-3.1-4.7-4.9-7.3
			c-1.5-2.3-3.2-4.7-5-7.2l-0.1-0.2h0c0-0.1-0.1-0.1-0.1-0.2c-0.4-0.6-0.8-1.1-1.2-1.7c-0.5-0.7-1-1.4-1.5-2.1l-0.1-0.1
			c0-0.1-0.1-0.2-0.1-0.2c-0.7-1-1.5-2-2.3-3.1c-1.4-1.9-2.9-3.9-4.4-5.9c-0.1-0.1-0.2-0.2-0.3-0.4c-0.1-0.1-0.2-0.3-0.3-0.4
			l-4.4-5.6c-0.7-0.9-1.4-1.7-2-2.6c-0.7-0.8-1.3-1.7-2-2.5c-1.4-1.7-2.8-3.5-4.3-5.2c-0.1-0.1-0.1-0.2-0.2-0.3
			c-0.1-0.1-0.2-0.2-0.3-0.3l0,0l-0.6-0.6c-0.8-1.1-1.7-2.1-2.7-3.1c-0.8-1-1.7-2-2.5-3c-1.1-1.3-2.2-2.6-3.3-3.8l-0.4-0.4
			c-0.3-0.3-0.5-0.6-0.8-0.9c-0.1-0.1-0.2-0.2-0.3-0.3c-0.1-0.1-0.2-0.2-0.3-0.3c-0.3-0.3-0.6-0.7-0.9-1c-0.6-0.7-1.1-1.3-1.7-1.9
			c-1.5-1.6-3-3.3-4.5-5c-2.1-2.2-4.2-4.4-6.3-6.7c-0.1-0.1-0.1-0.1-0.2-0.2c-0.6-0.6-1.2-1.2-1.7-1.8c-0.6-0.6-1.2-1.2-1.8-1.8
			c-0.8-0.8-1.6-1.7-2.5-2.5c-0.9-0.9-1.9-1.9-2.9-2.8l-4.5-4.4c-4.1-3.9-7.9-7.4-11.6-10.7c-0.1-0.1-0.3-0.2-0.4-0.4
			c-0.8-0.8-1.7-1.5-2.5-2.3l-1.2-1.1c-0.1-0.1-0.2-0.2-0.3-0.3c-0.2-0.2-0.4-0.4-0.7-0.6c-0.5-0.4-1-0.8-1.4-1.2
			c-2.8-2.4-5.4-4.6-8-6.7c-0.1-0.1-0.2-0.2-0.3-0.3c-0.1-0.1-0.2-0.2-0.4-0.3c-0.9-0.8-1.8-1.5-2.7-2.3c-2.2-1.9-4.6-3.8-7.6-6.1
			c-0.2-0.2-0.4-0.3-0.6-0.5c-1.3-1-2.5-2-3.9-3l-1-0.8c-0.4-0.3-0.9-0.7-1.3-1c-1.7-1.3-3.5-2.6-5.4-4c-1.4-1-2.7-2-4.1-3
			c-3.5-2.5-6.5-4.6-9.3-6.5c-0.1,0-0.1-0.1-0.2-0.2c-0.1-0.1-0.2-0.1-0.3-0.2c-0.1-0.1-0.2-0.1-0.3-0.2c-1.6-1.1-2.9-2-4.1-2.7
			l-2.3-1.5c-1-0.7-2.1-1.4-3.1-2c-1.8-1.2-3.6-2.3-5.4-3.5c-3.4-2.2-6.9-4.3-10-6.1c-0.4-0.2-0.7-0.4-1-0.6
			c-1.3-0.8-2.7-1.7-4.2-2.5c-0.2-0.1-0.5-0.3-0.7-0.4c-0.2-0.1-0.5-0.3-0.7-0.4c-0.2-0.1-0.5-0.3-0.7-0.4c-0.2-0.1-0.4-0.2-0.6-0.3
			c-0.7-0.4-1.4-0.8-2.1-1.2c-2.5-1.4-4.9-2.8-7.4-4.1c-2.7-1.5-5.5-2.9-8.2-4.3c-0.4-0.2-0.8-0.4-1.2-0.6c-1.5-0.8-2.9-1.6-4.3-2.2
			c-0.7-0.4-1.4-0.7-2.1-1c-2.2-1.1-4.3-2.1-6.3-3c-0.2-0.1-0.3-0.2-0.5-0.3c-1.8-0.9-3.5-1.7-5.1-2.3l-2.6-1.2
			c-1.1-0.5-2.3-1-3.4-1.5c-0.4-0.2-0.9-0.4-1.3-0.6c-1.6-0.7-3-1.4-4.3-1.9c-0.2-0.1-0.3-0.1-0.5-0.2c-0.2-0.1-0.4-0.2-0.6-0.2
			c-0.1,0-0.2-0.1-0.3-0.1c-0.1-0.1-0.3-0.1-0.4-0.2c-0.1,0-0.1-0.1-0.2-0.1c-1.5-0.7-3-1.3-4.5-1.9c-1.3-0.5-2.6-1.1-3.9-1.6
			c-2.7-1.1-5.7-2.3-9.1-3.6c-0.5-0.2-0.9-0.4-1.4-0.5c-1.5-0.6-3-1.1-4.4-1.6c-0.6-0.2-1.3-0.5-1.9-0.7c-2.2-0.8-4.4-1.6-6.7-2.4
			c-0.4-0.1-0.8-0.3-1.2-0.4c-0.4-0.1-0.8-0.3-1.2-0.4c-0.1,0-0.2-0.1-0.3-0.1l-0.1,0l-0.2,0c-2.2-0.8-4.3-1.4-5.9-1.9
			c-0.5-0.2-1-0.4-1.5-0.5c-0.3-0.1-0.6-0.2-0.9-0.3l-0.6-0.2c-0.8-0.2-1.5-0.5-2.2-0.7c-0.7-0.2-1.5-0.5-2.2-0.7
			c-0.2-0.1-0.5-0.1-0.7-0.2c-0.3-0.1-0.5-0.2-0.8-0.2l-0.4-0.1l-0.1,0c-0.1,0-0.3-0.1-0.5-0.1c-1.3-0.4-2.9-0.9-4.6-1.3
			c-2-0.6-3.7-1.1-5.4-1.5c-2.1-0.6-4.2-1.1-6.3-1.7c-0.5-0.1-1.1-0.3-1.6-0.4c-1.5-0.4-3-0.8-4.5-1.1l-1.8-0.5l-4.2-1
			c-2.3-0.6-4.5-1.1-6.7-1.5c-1.9-0.4-3.7-0.8-5.5-1.2c-0.5-0.1-1.1-0.2-1.6-0.3c-1.5-0.3-3-0.6-4.6-0.9c-0.3,0-0.5-0.1-0.8-0.2
			c-0.3-0.1-0.6-0.1-0.9-0.2c0,0-0.1,0-0.1,0c-2.5-0.5-4.9-0.9-7.3-1.3c-0.4-0.1-0.7-0.2-1-0.2l-1.4-0.2c-1.9-0.4-3.9-0.6-5.7-0.9
			c-0.3-0.1-0.5-0.1-0.8-0.1c-0.3-0.1-0.6-0.1-0.9-0.2c-0.3,0-0.5-0.1-0.8-0.1c-1.5-0.2-3-0.5-4.5-0.6c-0.6-0.1-1.2-0.2-1.8-0.3
			c-1-0.1-1.9-0.3-2.9-0.4l-0.4-0.1c-1.4-0.2-2.9-0.3-4.3-0.5l-0.1,0c-0.1,0-0.2,0-0.3,0c-0.1,0-0.3,0-0.4,0c-0.1,0-0.2,0-0.3,0
			c-1.7-0.2-3.5-0.4-5.2-0.6c-0.7-0.1-1.4-0.2-2.1-0.2c-0.6-0.1-1.1-0.1-1.7-0.1c-0.1,0-0.3,0-0.4,0c-0.1,0-0.2,0-0.3-0.1
			c-1-0.1-2.1-0.2-3.1-0.3l-0.2,0c-0.2-0.1-0.4-0.1-0.6-0.1c-0.1,0-0.2,0-0.2,0l-0.1,0c-0.5,0-0.9-0.1-1.4-0.1
			c-5.5-0.5-10.7-0.9-15.8-1.1c-0.6,0-1.1-0.1-1.7-0.1c-1.5-0.1-3.1-0.2-4.6-0.2h-0.2c-0.5,0-1-0.1-1.5-0.1c-0.3,0-0.6,0-1,0
			c-0.4,0-0.8,0-1.2,0l-3.7-0.1c-3.3-0.1-6.7-0.1-9.9-0.2c-0.6,0-1.2,0-1.7,0H509c-0.9,0-1.9,0-2.8,0c-0.6,0-1.2,0-1.7,0
			c-2.6,0-5.3,0.1-7.9,0.1c-2.4,0-4.9,0.1-7.3,0.2h-0.2c-0.1,0-0.3,0-0.4,0c-0.1,0-0.2,0-0.3,0c-0.2,0-0.4,0-0.7,0
			c-0.2,0-0.5,0-0.7,0c-1.5,0-2.9,0.1-4.5,0.2c-0.6,0-1.1,0.1-1.7,0.1c-4.8,0.3-9.9,0.6-15.8,1.2c-0.6,0-1.2,0.1-1.8,0.2l-0.4,0
			c-1.4,0.1-2.8,0.3-4.2,0.4c-0.6,0.1-1.1,0.1-1.7,0.2c-0.1,0-0.3,0-0.5,0c-1.4,0.1-2.8,0.3-4.1,0.5c-3.4,0.4-7,0.8-11.3,1.4
			c-0.6,0.1-1.2,0.2-1.8,0.3c-1.5,0.2-3,0.4-4.5,0.7c-0.6,0.1-1.1,0.2-1.7,0.2c-2.4,0.4-4.4,0.7-6.3,1.1l-3.4,0.6c0,0-0.1,0-0.1,0
			c-0.1,0-0.2,0-0.2,0c-1.2,0.2-2.6,0.5-4,0.7c-0.7,0.1-1.3,0.2-2,0.4c-0.6,0.1-1.2,0.2-1.8,0.3c-1.5,0.3-3,0.6-4.5,0.9
			c-0.5,0.1-1.1,0.2-1.6,0.3c-2,0.4-4,0.8-6,1.3c0,0-0.1,0-0.1,0c-0.1,0-0.1,0-0.2,0c-1.2,0.2-2.3,0.5-3.5,0.8l-0.4,0.1
			c-0.1,0-0.3,0.1-0.4,0.1c-0.1,0-0.3,0.1-0.4,0.1c-1.5,0.3-3,0.7-4.4,1c-0.3,0.1-0.6,0.1-0.9,0.2c-0.4,0.1-0.7,0.2-1.1,0.3
			c0,0-0.1,0-0.1,0c-0.1,0-0.2,0-0.3,0.1c0,0-0.1,0-0.1,0c-0.1,0-0.2,0-0.2,0.1c-1.5,0.3-3,0.7-4.5,1.1c-0.5,0.1-1.1,0.3-1.6,0.4
			c-2.8,0.7-5.6,1.5-8.4,2.3c-3.1,0.8-5.7,1.6-8.1,2.4c-0.5,0.1-0.9,0.3-1.4,0.4l-2.7,0.8c-0.8,0.2-1.5,0.5-2.3,0.7
			c-0.5,0.2-1,0.3-1.5,0.5c-2.3,0.8-4.7,1.5-7,2.3l-5.3,1.8c-1.5,0.5-3,1.1-4.6,1.6c-0.7,0.2-1.3,0.5-2,0.7c0,0-0.1,0-0.1,0
			c-0.1,0-0.1,0.1-0.1,0.1c-1.4,0.5-2.8,1-4.1,1.5c-0.5,0.2-1,0.4-1.4,0.5c-2.8,1-5.3,2-7.5,2.9c-0.2,0-0.4,0.1-0.6,0.2l-0.2,0.1
			c0,0-0.1,0-0.1,0c-0.1,0-0.1,0.1-0.2,0.1c-3.1,1.3-6.2,2.5-8.7,3.6c-0.7,0.3-1.4,0.6-2,0.9c-1.5,0.6-3,1.3-4.3,1.9
			c-0.5,0.2-0.9,0.4-1.3,0.6c-3.3,1.4-6.2,2.8-8.9,4.1c-2.8,1.3-5.7,2.7-8.7,4.1c-0.7,0.3-1.4,0.7-2.1,1c-1.5,0.7-2.9,1.5-4.3,2.2
			c-0.4,0.2-0.8,0.4-1.2,0.6c-5.7,2.9-11.6,6.1-17.9,9.8c-0.7,0.4-1.4,0.8-2.1,1.2c-1,0.6-2,1.2-3,1.8l-1.2,0.7
			c-0.2,0.1-0.3,0.2-0.5,0.3c-0.2,0.1-0.4,0.2-0.5,0.3c-0.1,0.1-0.2,0.1-0.3,0.2c-3.1,1.9-6.2,3.7-9.2,5.6l-0.2,0.1
			c-0.2,0.1-0.3,0.2-0.4,0.3c-2.5,1.6-5.2,3.3-8.2,5.3c-0.7,0.5-1.5,1-2.3,1.5l-0.1,0.1c-1.3,0.9-2.6,1.8-3.9,2.6
			c-0.3,0.2-0.6,0.4-0.9,0.6c-2.7,1.9-5.5,3.8-8.2,5.7l-0.7,0.5c-1.7,1.2-3.3,2.4-4.9,3.6c-1.5,1.1-3.1,2.2-4.7,3.4
			c-0.8,0.6-1.6,1.2-2.3,1.8c-1.3,1-2.6,2-3.9,3c-0.1,0-0.2,0.1-0.3,0.2l-0.4,0.3l-0.1,0.1c-1.4,1.1-2.8,2.2-4.1,3.3l-0.7,0.5
			c-1.3,1-2.6,2.1-3.9,3.1c-1,0.8-2,1.6-3.1,2.6l-4.6,3.8c-0.7,0.6-1.4,1.2-2.2,1.8c-0.8,0.7-1.6,1.4-2.4,2.1
			c-0.5,0.4-1,0.8-1.5,1.3c-0.8,0.7-1.5,1.3-2.3,2c-0.1,0.1-0.3,0.3-0.4,0.4c-6.3,5.5-12.5,11.4-18.7,17.5c-0.8,0.8-1.7,1.7-2.5,2.5
			c-1.2,1.2-2.4,2.4-3.5,3.6c-0.1,0.1-0.1,0.1-0.2,0.2c-1.3,1.4-2.6,2.7-3.9,4.1c-2,2-4.1,4.2-6.5,6.9c-0.4,0.4-0.8,0.8-1.2,1.2
			c-0.2,0.2-0.4,0.4-0.5,0.6c-1.3,1.4-2.6,2.8-3.8,4.2c-0.9,1-1.8,2-2.7,3c-0.8,1-1.7,1.9-2.5,2.9c-1,1.1-2.1,2.3-3.3,3.8
			c0,0,0,0,0,0c-6.4,7.6-12.4,15.2-17.9,22.6c-0.8,1.1-1.7,2.3-2.5,3.4c-1,1.3-1.9,2.6-2.7,3.8c-0.1,0.1-0.1,0.2-0.2,0.3
			c-1.7,2.3-3.4,4.7-5,7.1c-1.8,2.6-3.4,5-4.9,7.2c-1.7,2.5-3.4,5.1-4.8,7.3c-0.8,1.2-1.5,2.3-2.2,3.5l0.5,0l0.6,0
			c0.6-1,1.3-2,1.9-3.1c1.4-2.2,3.1-4.8,4.8-7.3c1.5-2.2,3.1-4.6,4.9-7.2c1.6-2.4,3.3-4.8,5-7.1c0.2-0.2,0.3-0.5,0.5-0.7
			c0.8-1.1,1.6-2.2,2.4-3.4c0.9-1.3,1.9-2.5,2.8-3.8c5.4-7.3,11.4-14.7,17.6-22.2c0.1-0.1,0.2-0.3,0.3-0.4c1.1-1.3,2.1-2.4,3-3.5
			c0.9-1.1,1.9-2.2,2.8-3.3c0.8-0.9,1.5-1.8,2.3-2.6c1.2-1.4,2.5-2.8,3.8-4.2c0.1-0.2,0.2-0.3,0.4-0.5c0.4-0.4,0.8-0.8,1.2-1.2
			c2.4-2.7,4.5-4.9,6.5-6.9c1.4-1.5,2.7-2.9,4.1-4.3c0,0,0.1-0.1,0.1-0.1c1.1-1.1,2.2-2.3,3.4-3.5c0.9-0.9,1.9-1.9,2.8-2.8
			c6.1-6.1,12.4-11.9,18.6-17.5c0,0,0.1-0.1,0.1-0.1c0.7-0.7,1.5-1.3,2.2-2c0.5-0.4,1-0.9,1.5-1.3c0.9-0.8,1.8-1.6,2.8-2.4
			c0.6-0.5,1.2-1,1.8-1.5l4.6-3.9c1.1-1,2.1-1.8,3.1-2.6c1.3-1.1,2.6-2.1,3.9-3.1l0.7-0.6c1.3-1.1,2.7-2.1,4.1-3.2l0.4-0.4l0,0
			c0.1-0.1,0.2-0.1,0.2-0.2l0.1-0.1c1.3-1,2.6-2,3.9-3c0.9-0.7,1.8-1.4,2.7-2c1.5-1.1,2.9-2.2,4.3-3.2c1.6-1.2,3.2-2.4,4.9-3.6
			l0.8-0.6c2.8-1.9,5.6-3.9,8.4-5.9c0.2-0.1,0.4-0.2,0.5-0.3c1.3-0.8,2.6-1.7,3.9-2.6l0.1-0.1c0.9-0.6,1.7-1.1,2.6-1.7
			c2.9-1.9,5.4-3.5,7.9-5c0.1-0.1,0.2-0.1,0.4-0.2l0.2-0.1c3.1-1.9,6.1-3.8,9.2-5.6c0.2-0.1,0.4-0.2,0.6-0.3c0.1,0,0.1-0.1,0.2-0.1
			c0.2-0.1,0.4-0.2,0.5-0.3l1.1-0.7c1-0.6,2-1.2,3-1.8c0.8-0.5,1.7-1,2.5-1.4c6.3-3.6,12.2-6.8,17.9-9.7c0.3-0.2,0.6-0.3,0.9-0.5
			c1.4-0.7,2.8-1.5,4.3-2.2c0.8-0.4,1.6-0.8,2.4-1.2c2.8-1.4,5.7-2.7,8.4-4c2.8-1.3,5.8-2.7,9.2-4.2c0.4-0.2,0.7-0.3,1.1-0.5
			c1.3-0.6,2.8-1.3,4.3-1.9c0.7-0.3,1.5-0.6,2.3-1c2.5-1.1,5.5-2.3,8.5-3.5c0,0,0.1,0,0.1,0c0.1,0,0.1-0.1,0.1-0.1l0.2-0.1
			c0.1-0.1,0.3-0.1,0.5-0.2c2.4-1,4.9-2,7.8-3c0.4-0.1,0.8-0.3,1.2-0.5c1.3-0.5,2.7-1,4.1-1.5c0,0,0.1,0,0.1-0.1
			c0.1,0,0.1-0.1,0.1-0.1c0.7-0.3,1.4-0.5,2.2-0.8c1.4-0.5,2.9-1,4.4-1.6l5.2-1.8c2.4-0.8,4.8-1.6,7.2-2.4c0.4-0.1,0.9-0.3,1.3-0.4
			c0.8-0.2,1.5-0.5,2.3-0.7l2.2-0.7c0.1,0,0.2-0.1,0.3-0.1l0.3-0.1c0.5-0.2,1.1-0.3,1.6-0.5c2.3-0.7,4.9-1.5,7.9-2.3
			c2.8-0.8,5.7-1.6,8.6-2.3c0.5-0.1,1-0.3,1.4-0.4c1.5-0.4,3-0.8,4.5-1.2c0,0,0.1,0,0.1,0c0.1,0,0.1,0,0.3-0.1c0,0,0.1,0,0.1,0
			c0.1,0,0.2,0,0.2,0c0.4-0.1,0.9-0.2,1.3-0.3c0.2,0,0.5-0.1,0.7-0.2c1.4-0.4,2.9-0.7,4.4-1c0.2,0,0.3-0.1,0.4-0.1
			c0.2,0,0.3-0.1,0.5-0.1l0.4-0.1c1.2-0.3,2.3-0.6,3.5-0.8c0,0,0.1,0,0.1,0c0.1,0,0.1,0,0.2,0c2-0.4,4-0.9,6-1.3
			c0.5-0.1,1-0.2,1.5-0.3c1.5-0.4,3-0.6,4.5-0.9c0.6-0.1,1.3-0.3,1.9-0.4c0.6-0.1,1.3-0.2,1.9-0.3c1.3-0.3,2.6-0.5,4-0.7
			c0,0,0.1,0,0.1,0c0.1,0,0.2,0,0.2,0l3.4-0.5c1.9-0.4,4-0.7,6.4-1.1c0.5-0.1,1-0.2,1.6-0.2c1.5-0.3,3-0.5,4.5-0.7
			c0.6-0.1,1.3-0.2,1.9-0.3c4.3-0.6,7.8-1.1,11.2-1.4c1.4-0.2,2.8-0.3,4.1-0.5c0.2,0,0.4,0,0.5,0c0.5,0,1.1-0.1,1.6-0.2
			c1.4-0.2,2.8-0.3,4.2-0.4l0.3,0c0.6-0.1,1.2-0.1,1.9-0.2c5.8-0.5,10.8-0.9,15.7-1.2c0.6,0,1.1,0,1.7-0.1c1.6-0.1,3.1-0.2,4.5-0.2
			c0.3,0,0.5,0,0.8,0c0.2,0,0.5,0,0.7,0c0.1,0,0.2,0,0.3,0c0.1,0,0.2,0,0.3,0l0.2,0c2.4-0.1,4.9-0.2,7.3-0.2
			c2.6-0.1,5.2-0.1,7.9-0.1c0.6,0,1.2,0,1.8,0c0.9,0,1.9,0,2.8,0h1.7c0.6,0,1.2,0,1.7,0c3.1,0,6.5,0.1,9.9,0.2L526,48
			c0.4,0,0.8,0,1.2,0c0.3,0,0.6,0,0.9,0c0.5,0,1,0,1.5,0.1h0.3c1.5,0,3,0.1,4.5,0.2c0.6,0,1.1,0,1.7,0.1c5.1,0.2,10.3,0.6,15.8,1.1
			c0.5,0,0.9,0.1,1.4,0.1c0.4,0.1,0.5,0,0.9,0.1l0.3,0c1,0.1,2,0.2,3,0.3c0.1,0,0.3,0,0.4,0.1c0.1,0,0.2,0,0.4,0
			c0.5,0,1.1,0.1,1.6,0.1c0.7,0.1,1.5,0.1,2.2,0.2c1.8,0.2,3.5,0.4,5.2,0.6c0.1,0,0.3,0,0.4,0.1c0.1,0,0.2,0,0.3,0l0.3,0
			c0.1,0,0.2,0,0.2,0c1.4,0.2,2.9,0.4,4.3,0.6l0.4,0c0.9,0.1,1.8,0.2,2.8,0.4c0.6,0.1,1.3,0.2,1.9,0.3c1.5,0.2,3.1,0.4,4.5,0.6
			c0.3,0,0.5,0.1,0.8,0.1c0.3,0,0.5,0.1,0.8,0.1c0.3,0,0.6,0.1,0.8,0.2c1.9,0.3,3.8,0.5,5.7,0.9l1,0.1c0.1,0,0.3,0,0.4,0.1
			c0.3,0,0.6,0.1,1,0.2c2.4,0.4,4.8,0.8,7.2,1.3c0.1,0,0.2,0,0.3,0.1c0.3,0,0.5,0.1,0.8,0.2c0.3,0.1,0.6,0.1,0.8,0.2
			c1.5,0.3,3.1,0.6,4.5,0.9c0.5,0.1,1,0.2,1.5,0.3c1.8,0.4,3.7,0.8,5.6,1.2c2.2,0.4,4.4,0.9,6.7,1.5l4,1l2,0.5
			c1.5,0.3,3,0.7,4.5,1.1c0.5,0.1,0.9,0.3,1.4,0.4c2.1,0.6,4.3,1.1,6.4,1.7c1.7,0.4,3.4,0.9,5.4,1.5c1.7,0.4,3.3,0.9,4.6,1.3
			c0.1,0,0.2,0.1,0.3,0.1c0,0,0.1,0,0.2,0l0.5,0.1c0.2,0.1,0.5,0.1,0.7,0.2c0.3,0.1,0.5,0.2,0.8,0.2c0.8,0.2,1.5,0.5,2.2,0.7
			c0.7,0.2,1.5,0.5,2.2,0.7l0.6,0.2c0.2,0.1,0.5,0.2,0.7,0.2c0.6,0.2,1.2,0.4,1.7,0.6c1.6,0.5,3.8,1.2,6,2l0.2,0.1h0
			c0,0,0.1,0,0.1,0l0.1-0.5l0,0.5c0.4,0.1,0.8,0.3,1.2,0.4c0.4,0.2,0.8,0.3,1.2,0.4c2.2,0.7,4.3,1.5,6.4,2.3
			c0.7,0.3,1.5,0.5,2.2,0.8c1.5,0.5,2.9,1,4.4,1.6c0.4,0.1,0.8,0.3,1.2,0.4c3.5,1.3,6.5,2.5,9.3,3.7c1.3,0.5,2.6,1,3.9,1.6
			c1.4,0.6,2.8,1.2,4.2,1.8c0.1,0.1,0.3,0.1,0.5,0.2c0.1,0,0.2,0.1,0.4,0.2c0.1,0,0.3,0.1,0.4,0.2c0.2,0.1,0.4,0.1,0.5,0.2
			c0.2,0.1,0.4,0.2,0.6,0.2c1.3,0.5,2.7,1.1,4.3,1.9c0.4,0.2,0.7,0.3,1.1,0.5c1.2,0.5,2.4,1.1,3.6,1.6l2.6,1.2
			c1.6,0.7,3.3,1.5,5.1,2.3c0.1,0,0.2,0.1,0.4,0.2c2,0.9,4,1.9,6.1,2.9c0.8,0.4,1.6,0.8,2.4,1.2c1.4,0.6,2.7,1.3,4.3,2.2
			c0.3,0.2,0.6,0.3,0.9,0.5c2.8,1.4,5.6,2.9,8.4,4.4c2.5,1.3,4.9,2.7,7.4,4.1c0.7,0.4,1.4,0.8,2.1,1.2c0.1,0,0.2,0.1,0.3,0.2
			c0.4,0.2,0.7,0.4,1,0.6c0.3,0.1,0.5,0.3,0.7,0.4c0.2,0.1,0.5,0.3,0.7,0.4c1.5,0.8,2.9,1.7,4.2,2.5c0.2,0.1,0.5,0.3,0.7,0.4
			c3.2,1.9,6.8,4,10.3,6.3c1.8,1.1,3.6,2.3,5.4,3.4c0.9,0.6,1.8,1.2,2.8,1.8c0.9,0.6,1.7,1.2,2.6,1.7c1.2,0.8,2.5,1.6,4,2.7
			c0.1,0.1,0.2,0.2,0.3,0.2c0.1,0,0.2,0.1,0.2,0.2c0,0,0,0,0.1,0c2.9,2,5.9,4.1,9.5,6.7c1.4,1,2.8,2,4.1,3c1.8,1.3,3.4,2.5,5.1,3.7
			c0.6,0.4,1.1,0.8,1.6,1.2l1,0.8c1.3,1,2.6,2,3.9,3c0.1,0.1,0.2,0.2,0.3,0.2c3.1,2.4,5.6,4.4,7.9,6.4c0.9,0.7,1.8,1.4,2.7,2.2
			c0.1,0.1,0.2,0.2,0.3,0.3c0.1,0.1,0.2,0.2,0.4,0.3c2.4,2,4.9,4.1,7.6,6.4c0.6,0.5,1.2,1,1.8,1.6c0.2,0.2,0.4,0.4,0.6,0.5
			c0.1,0.1,0.2,0.2,0.3,0.3l1.2,1.1c0.8,0.8,1.7,1.5,2.5,2.3c0,0,0.1,0,0.1,0.1c3.8,3.4,7.6,7,11.9,11l4.5,4.4
			c0.9,0.8,1.7,1.6,2.5,2.5c1,1,1.9,1.9,2.8,2.8c0.6,0.6,1.2,1.2,1.8,1.8c0.5,0.6,1.1,1.1,1.6,1.6c0,0,0.1,0.1,0.1,0.1
			c2.2,2.3,4.4,4.6,6.5,6.9c1.5,1.7,3,3.3,4.5,5c0.6,0.6,1.1,1.3,1.7,1.9c0.3,0.3,0.6,0.7,1,1.1c0.1,0.1,0.2,0.2,0.3,0.3
			c0.1,0.1,0.2,0.3,0.3,0.3c0.3,0.3,0.5,0.6,0.8,0.9l0.4,0.5c1,1.1,2,2.3,3,3.4c0.9,1.1,1.9,2.2,2.8,3.3c0.9,1,1.8,2.1,2.6,3.1
			l0.3,0.3l0.3,0.4l0.2,0.2h0c0,0,0.1,0.1,0.1,0.1c0.1,0.1,0.2,0.2,0.3,0.3c1.4,1.7,2.9,3.5,4.3,5.2c0.7,0.8,1.3,1.7,2,2.5
			c0.7,0.9,1.4,1.7,2,2.6l4.4,5.6c0.1,0.1,0.2,0.2,0.3,0.4c0.1,0.1,0.2,0.3,0.3,0.4c1.4,1.8,2.8,3.6,4.1,5.5
			c0.9,1.2,1.8,2.4,2.6,3.5l0.1,0.1c0,0.1,0.1,0.2,0.1,0.2c0.5,0.7,1,1.4,1.5,2.1c0.3,0.4,0.6,0.9,1,1.3c0.1,0.2,0.3,0.4,0.5,0.6
			l0,0.4h0.2c1.7,2.4,3.3,4.8,4.8,7c1.8,2.6,3.4,5,4.9,7.3c2.1,3.2,4.4,6.7,6.7,10.6c0.9,1.4,1.8,2.9,2.7,4.4l0.2,0.2
			c0.4,0.6,0.8,1.3,1.2,1.9c0.2,0.3,0.4,0.7,0.6,1c0.2,0.4,0.5,0.7,0.7,1.1l1.2,2.1c1.1,1.9,2.2,3.7,3.2,5.6
			c4,6.9,7.9,14.3,12.1,22.7h1.1C942.7,310.4,938.6,302.8,934.6,295.8z M898.3,240.7c-0.1-0.1-0.2-0.2-0.3-0.4
			c-0.1-0.1-0.2-0.3-0.3-0.4l-4.4-5.6c-0.7-0.9-1.4-1.7-2-2.6c-0.7-0.8-1.3-1.7-2-2.5c-1.4-1.7-2.8-3.5-4.3-5.2
			c-0.1-0.1-0.1-0.2-0.2-0.3c-0.1-0.1-0.2-0.2-0.3-0.3l0,0l-0.6-0.6c-0.8-1.1-1.7-2.1-2.7-3.1c-0.8-1-1.7-2-2.5-3
			c-1.1-1.3-2.2-2.6-3.3-3.8l-0.4-0.4c-0.3-0.3-0.5-0.6-0.8-0.9c-0.1-0.1-0.2-0.2-0.3-0.3c-0.1-0.1-0.2-0.2-0.3-0.3
			c-0.3-0.3-0.6-0.7-0.9-1c-0.6-0.7-1.1-1.3-1.7-1.9c-1.5-1.6-3-3.3-4.5-5c-2.1-2.2-4.2-4.4-6.3-6.7c-0.1-0.1-0.1-0.1-0.2-0.2
			c-0.6-0.6-1.2-1.2-1.7-1.8c-0.6-0.6-1.2-1.2-1.8-1.8c-0.8-0.8-1.6-1.7-2.5-2.5c-0.9-0.9-1.9-1.9-2.9-2.8l-4.5-4.4
			c-4.1-3.9-7.9-7.4-11.6-10.7c-0.1-0.1-0.3-0.2-0.4-0.4c-0.8-0.8-1.7-1.5-2.5-2.3l-1.2-1.1c-0.1-0.1-0.2-0.2-0.3-0.3
			c-0.2-0.2-0.4-0.4-0.7-0.6c-0.5-0.4-1-0.8-1.4-1.2c-2.8-2.4-5.4-4.6-8-6.7c-0.1-0.1-0.2-0.2-0.3-0.3c-0.1-0.1-0.2-0.2-0.4-0.3
			c-0.9-0.8-1.8-1.5-2.7-2.3c-2.2-1.9-4.6-3.8-7.6-6.1c-0.2-0.2-0.4-0.3-0.6-0.5c-1.3-1-2.5-2-3.9-3l-1-0.8c-0.4-0.3-0.9-0.7-1.3-1
			c-1.7-1.3-3.5-2.6-5.4-4c-1.4-1-2.7-2-4.1-3c-3.5-2.5-6.5-4.6-9.3-6.5c-0.1,0-0.1-0.1-0.2-0.2c-0.1-0.1-0.2-0.1-0.3-0.2
			c-0.1-0.1-0.2-0.1-0.3-0.2c-1.6-1.1-2.9-2-4.1-2.7l-2.3-1.5c-1-0.7-2.1-1.4-3.1-2c-1.8-1.2-3.6-2.3-5.4-3.5
			c-3.4-2.2-6.9-4.3-10-6.1c-0.4-0.2-0.7-0.4-1-0.6c-1.3-0.8-2.7-1.7-4.2-2.5c-0.2-0.1-0.5-0.3-0.7-0.4c-0.2-0.1-0.5-0.3-0.7-0.4
			c-0.2-0.1-0.5-0.3-0.7-0.4c-0.2-0.1-0.4-0.2-0.6-0.3c-0.7-0.4-1.4-0.8-2.1-1.2c-2.5-1.4-4.9-2.8-7.4-4.1c-2.7-1.5-5.5-2.9-8.2-4.3
			c-0.4-0.2-0.8-0.4-1.2-0.6c-1.5-0.8-2.9-1.6-4.3-2.2c-0.7-0.4-1.4-0.7-2.1-1c-2.2-1.1-4.3-2.1-6.3-3c-0.2-0.1-0.3-0.2-0.5-0.3
			c-1.8-0.9-3.5-1.7-5.1-2.3l-2.6-1.2c-1.1-0.5-2.3-1-3.4-1.5c-0.4-0.2-0.9-0.4-1.3-0.6c-1.6-0.7-3-1.4-4.3-1.9
			c-0.2-0.1-0.3-0.1-0.5-0.2c-0.2-0.1-0.4-0.2-0.6-0.2c-0.1,0-0.2-0.1-0.3-0.1c-0.1-0.1-0.3-0.1-0.4-0.2c-0.1,0-0.1-0.1-0.2-0.1
			c-1.5-0.7-3-1.3-4.5-1.9c-1.3-0.5-2.6-1.1-3.9-1.6c-2.7-1.1-5.7-2.3-9.1-3.6c-0.5-0.2-0.9-0.4-1.4-0.5c-1.5-0.6-3-1.1-4.4-1.6
			c-0.6-0.2-1.3-0.5-1.9-0.7c-2.2-0.8-4.4-1.6-6.7-2.4c-0.4-0.1-0.8-0.3-1.2-0.4c-0.4-0.1-0.8-0.3-1.2-0.4c-0.1,0-0.2-0.1-0.3-0.1
			l-0.1,0l-0.2,0c-2.2-0.8-4.3-1.4-5.9-1.9c-0.5-0.2-1-0.4-1.5-0.5c-0.3-0.1-0.6-0.2-0.9-0.3l-0.6-0.2c-0.8-0.2-1.5-0.5-2.2-0.7
			c-0.7-0.2-1.5-0.5-2.2-0.7c-0.2-0.1-0.5-0.1-0.7-0.2c-0.3-0.1-0.5-0.2-0.8-0.2l-0.4-0.1l-0.1,0c-0.1,0-0.3-0.1-0.5-0.1
			c-1.3-0.4-2.9-0.9-4.6-1.3c-2-0.6-3.7-1.1-5.4-1.5c-2.1-0.6-4.2-1.1-6.3-1.7c-0.5-0.1-1.1-0.3-1.6-0.4c-1.5-0.4-3-0.8-4.5-1.1
			l-1.8-0.5l-4.2-1c-2.3-0.6-4.5-1.1-6.7-1.5c-1.9-0.4-3.7-0.8-5.5-1.2c-0.5-0.1-1.1-0.2-1.6-0.3c-1.5-0.3-3-0.6-4.6-0.9
			c-0.3,0-0.5-0.1-0.8-0.2c-0.3-0.1-0.6-0.1-0.9-0.2c0,0-0.1,0-0.1,0c-2.5-0.5-4.9-0.9-7.3-1.3c-0.4-0.1-0.7-0.2-1-0.2l-1.4-0.2
			c-1.9-0.4-3.9-0.6-5.7-0.9c-0.3-0.1-0.5-0.1-0.8-0.1c-0.3-0.1-0.6-0.1-0.9-0.2c-0.3,0-0.5-0.1-0.8-0.1c-1.5-0.2-3-0.5-4.5-0.6
			c-0.6-0.1-1.2-0.2-1.8-0.3c-1-0.1-1.9-0.3-2.9-0.4l-0.4-0.1c-1.4-0.2-2.9-0.3-4.3-0.5l-0.1,0c-0.1,0-0.2,0-0.3,0
			c-0.1,0-0.3,0-0.4,0c-0.1,0-0.2,0-0.3,0c-1.7-0.2-3.5-0.4-5.2-0.6c-0.7-0.1-1.4-0.2-2.1-0.2c-0.6-0.1-1.1-0.1-1.7-0.1
			c-0.1,0-0.3,0-0.4,0c-0.1,0-0.2,0-0.3-0.1c-1-0.1-2.1-0.2-3.1-0.3l-0.2,0c-0.2-0.1-0.4-0.1-0.6-0.1c-0.1,0-0.2,0-0.2,0l-0.1,0
			c-0.5,0-0.9-0.1-1.4-0.1c-5.5-0.5-10.7-0.9-15.8-1.1c-0.6,0-1.1-0.1-1.7-0.1c-1.5-0.1-3.1-0.2-4.6-0.2h-0.2c-0.5,0-1-0.1-1.5-0.1
			c-0.3,0-0.6,0-1,0c-0.4,0-0.8,0-1.2,0l-3.7-0.1c-3.3-0.1-6.7-0.1-9.9-0.2c-0.6,0-1.2,0-1.7,0H509c-0.9,0-1.9,0-2.8,0
			c-0.6,0-1.2,0-1.7,0c-2.6,0-5.3,0.1-7.9,0.1c-2.4,0-4.9,0.1-7.3,0.2h-0.2c-0.1,0-0.3,0-0.4,0c-0.1,0-0.2,0-0.3,0
			c-0.2,0-0.4,0-0.7,0c-0.2,0-0.5,0-0.7,0c-1.5,0-2.9,0.1-4.5,0.2c-0.6,0-1.1,0.1-1.7,0.1c-4.8,0.3-9.9,0.6-15.8,1.2
			c-0.6,0-1.2,0.1-1.8,0.2l-0.4,0c-1.4,0.1-2.8,0.3-4.2,0.4c-0.6,0.1-1.1,0.1-1.7,0.2c-0.1,0-0.3,0-0.5,0c-1.4,0.1-2.8,0.3-4.1,0.5
			c-3.4,0.4-7,0.8-11.3,1.4c-0.6,0.1-1.2,0.2-1.8,0.3c-1.5,0.2-3,0.4-4.5,0.7c-0.6,0.1-1.1,0.2-1.7,0.2c-2.4,0.4-4.4,0.7-6.3,1.1
			l-3.4,0.6c0,0-0.1,0-0.1,0c-0.1,0-0.2,0-0.2,0c-1.2,0.2-2.6,0.5-4,0.7c-0.7,0.1-1.3,0.2-2,0.4c-0.6,0.1-1.2,0.2-1.8,0.3
			c-1.5,0.3-3,0.6-4.5,0.9c-0.5,0.1-1.1,0.2-1.6,0.3c-2,0.4-4,0.8-6,1.3c0,0-0.1,0-0.1,0c-0.1,0-0.1,0-0.2,0
			c-1.2,0.2-2.3,0.5-3.5,0.8l-0.4,0.1c-0.1,0-0.3,0.1-0.4,0.1c-0.1,0-0.3,0.1-0.4,0.1c-1.5,0.3-3,0.7-4.4,1
			c-0.3,0.1-0.6,0.1-0.9,0.2c-0.4,0.1-0.7,0.2-1.1,0.3c0,0-0.1,0-0.1,0c-0.1,0-0.2,0-0.3,0.1c0,0-0.1,0-0.1,0c-0.1,0-0.2,0-0.2,0.1
			c-1.5,0.3-3,0.7-4.5,1.1c-0.5,0.1-1.1,0.3-1.6,0.4c-2.8,0.7-5.6,1.5-8.4,2.3c-3.1,0.8-5.7,1.6-8.1,2.4c-0.5,0.1-0.9,0.3-1.4,0.4
			l-2.7,0.8c-0.8,0.2-1.5,0.5-2.3,0.7c-0.5,0.2-1,0.3-1.5,0.5c-2.3,0.8-4.7,1.5-7,2.3l-5.3,1.8c-1.5,0.5-3,1.1-4.6,1.6
			c-0.7,0.2-1.3,0.5-2,0.7c0,0-0.1,0-0.1,0c-0.1,0-0.1,0.1-0.1,0.1c-1.4,0.5-2.8,1-4.1,1.5c-0.5,0.2-1,0.4-1.4,0.5
			c-2.8,1-5.3,2-7.5,2.9c-0.2,0-0.4,0.1-0.6,0.2l-0.2,0.1c0,0-0.1,0-0.1,0c-0.1,0-0.1,0.1-0.2,0.1c-3.1,1.3-6.2,2.5-8.7,3.6
			c-0.7,0.3-1.4,0.6-2,0.9c-1.5,0.6-3,1.3-4.3,1.9c-0.5,0.2-0.9,0.4-1.3,0.6c-3.3,1.4-6.2,2.8-8.9,4.1c-2.8,1.3-5.7,2.7-8.7,4.1
			c-0.7,0.3-1.4,0.7-2.1,1c-1.5,0.7-2.9,1.5-4.3,2.2c-0.4,0.2-0.8,0.4-1.2,0.6c-5.7,2.9-11.6,6.1-17.9,9.8c-0.7,0.4-1.4,0.8-2.1,1.2
			c-1,0.6-2,1.2-3,1.8l-1.2,0.7c-0.2,0.1-0.3,0.2-0.5,0.3c-0.2,0.1-0.4,0.2-0.5,0.3c-0.1,0.1-0.2,0.1-0.3,0.2
			c-3.1,1.9-6.2,3.7-9.2,5.6l-0.2,0.1c-0.2,0.1-0.3,0.2-0.4,0.3c-2.5,1.6-5.2,3.3-8.2,5.3c-0.7,0.5-1.5,1-2.3,1.5l-0.1,0.1
			c-1.3,0.9-2.6,1.8-3.9,2.6c-0.3,0.2-0.6,0.4-0.9,0.6c-2.7,1.9-5.5,3.8-8.2,5.7l-0.7,0.5c-1.7,1.2-3.3,2.4-4.9,3.6
			c-1.5,1.1-3.1,2.2-4.7,3.4c-0.8,0.6-1.6,1.2-2.3,1.8c-1.3,1-2.6,2-3.9,3c-0.1,0-0.2,0.1-0.3,0.2l-0.4,0.3l-0.1,0.1
			c-1.4,1.1-2.8,2.2-4.1,3.3l-0.7,0.5c-1.3,1-2.6,2.1-3.9,3.1c-1,0.8-2,1.6-3.1,2.6l-4.6,3.8c-0.7,0.6-1.4,1.2-2.2,1.8
			c-0.8,0.7-1.6,1.4-2.4,2.1c-0.5,0.4-1,0.8-1.5,1.3c-0.8,0.7-1.5,1.3-2.3,2c-0.1,0.1-0.3,0.3-0.4,0.4c-6.3,5.5-12.5,11.4-18.7,17.5
			c-0.8,0.8-1.7,1.7-2.5,2.5c-1.2,1.2-2.4,2.4-3.5,3.6c-0.1,0.1-0.1,0.1-0.2,0.2c-1.3,1.4-2.6,2.7-3.9,4.1c-2,2-4.1,4.2-6.5,6.9
			c-0.4,0.4-0.8,0.8-1.2,1.2c-0.2,0.2-0.4,0.4-0.5,0.6c-1.3,1.4-2.6,2.8-3.8,4.2c-0.9,1-1.8,2-2.7,3c-0.8,1-1.7,1.9-2.5,2.9
			c-1,1.1-2.1,2.3-3.3,3.8c0,0,0,0,0,0c-6.4,7.6-12.4,15.2-17.9,22.6c-0.8,1.1-1.7,2.3-2.5,3.4c-1,1.3-1.9,2.6-2.7,3.8
			c-0.1,0.1-0.1,0.2-0.2,0.3c-1.7,2.3-3.4,4.7-5,7.1c-1.8,2.6-3.4,5-4.9,7.2c-1.7,2.5-3.4,5.1-4.8,7.3c-0.8,1.2-1.5,2.3-2.2,3.5
			l0.5,0c0.7-1.1,1.4-2.2,2.1-3.3c1.5-2.4,3.1-4.9,4.8-7.3c1.6-2.4,3.2-4.8,4.9-7.2c1.6-2.4,3.3-4.8,5-7.1c0.1-0.2,0.2-0.3,0.4-0.5
			c0.8-1.2,1.7-2.4,2.6-3.6c0.9-1.2,1.8-2.4,2.7-3.6c5.7-7.7,11.7-15.1,17.8-22.4c0.1-0.1,0.1-0.1,0.2-0.2c1-1.3,2.1-2.5,3.1-3.6
			c0.9-1,1.8-2.1,2.7-3.1c0.8-0.9,1.7-1.9,2.5-2.8c1.2-1.4,2.5-2.8,3.8-4.2c0.1-0.2,0.3-0.4,0.5-0.5c0.4-0.4,0.8-0.8,1.2-1.2
			c2.1-2.3,4.3-4.6,6.5-6.9c1.3-1.4,2.7-2.9,4.1-4.3c0,0,0,0,0-0.1c1.1-1.2,2.3-2.4,3.5-3.6c0.9-0.9,1.8-1.8,2.7-2.6
			c6.1-6,12.3-11.8,18.7-17.5c0.1-0.1,0.2-0.2,0.3-0.2c1.2-1.1,2.5-2.2,3.7-3.3c0.8-0.8,1.7-1.5,2.6-2.3c0.7-0.6,1.3-1.1,2-1.7
			c1.5-1.3,3.1-2.6,4.6-3.8c1-0.9,2-1.8,3.1-2.6c1.5-1.3,3-2.5,4.6-3.7c1.4-1.2,2.9-2.3,4.4-3.5c0.1-0.1,0.2-0.1,0.3-0.2
			c0.1,0,0.1-0.1,0.2-0.2c1.3-1,2.6-2,3.9-3c0.8-0.6,1.7-1.3,2.5-1.9c1.5-1.1,3-2.2,4.5-3.3c1.9-1.4,3.7-2.8,5.6-4.1
			c2.8-1.9,5.5-3.9,8.3-5.8c0.2-0.2,0.4-0.3,0.7-0.5c1.3-0.9,2.7-1.8,4-2.7c0.8-0.5,1.6-1.1,2.4-1.6c2.6-1.7,5.3-3.4,8-5.1
			c0.2-0.1,0.4-0.2,0.6-0.4c3-1.9,6.1-3.8,9.2-5.6c0.1-0.1,0.3-0.2,0.4-0.3c0.3-0.2,0.6-0.3,0.9-0.5c1.4-0.8,2.8-1.7,4.2-2.4
			c0.8-0.5,1.6-0.9,2.3-1.3c5.9-3.4,11.9-6.6,17.9-9.7c0.3-0.2,0.7-0.4,1-0.5c1.4-0.7,2.8-1.5,4.3-2.2c0.7-0.4,1.5-0.7,2.2-1.1
			c2.8-1.4,5.6-2.7,8.5-4.1c3-1.4,6-2.8,9-4.2c0.4-0.2,0.8-0.3,1.2-0.5c1.4-0.7,2.9-1.3,4.3-1.9c0.7-0.3,1.4-0.6,2.2-0.9
			c2.8-1.2,5.7-2.4,8.6-3.6c0.1,0,0.2-0.1,0.3-0.1c0.2-0.1,0.4-0.2,0.6-0.2c2.5-1.1,5.1-2,7.7-3c0.4-0.2,0.9-0.3,1.3-0.5
			c1.4-0.6,2.7-1.1,4.1-1.5c0.1,0,0.2-0.1,0.3-0.1c0.7-0.3,1.4-0.5,2.1-0.8c1.5-0.5,3-1.1,4.6-1.6c1.7-0.6,3.5-1.2,5.2-1.8
			c2.4-0.8,4.7-1.6,7.1-2.3c0.5-0.2,0.9-0.3,1.4-0.5c1.5-0.4,3-0.9,4.4-1.4c0.2,0,0.3-0.1,0.5-0.1c0.5-0.2,1-0.3,1.5-0.5
			c2.6-0.8,5.3-1.6,8-2.3c2.8-0.8,5.7-1.6,8.5-2.3c0.5-0.1,1-0.3,1.5-0.4c1.5-0.4,3-0.8,4.5-1.1c0.1-0.1,0.2-0.1,0.4-0.1
			c0.1,0,0.3,0,0.4-0.1c0.4-0.1,0.8-0.2,1.2-0.3c1.7-0.4,3.4-0.8,5.1-1.2c0.3-0.1,0.6-0.1,0.9-0.2c1.3-0.3,2.6-0.6,3.9-0.9
			c0.1,0,0.2,0,0.4-0.1c2-0.4,4-0.9,6-1.3c0.5-0.1,1-0.2,1.6-0.3c1.5-0.4,3-0.6,4.5-0.9c0.6-0.1,1.3-0.3,1.9-0.4
			c0.7-0.1,1.3-0.2,2-0.4c1.3-0.3,2.6-0.5,3.9-0.7c0.1,0,0.3,0,0.5-0.1c1.1-0.2,2.2-0.4,3.4-0.5c2.1-0.4,4.2-0.7,6.4-1
			c0.5-0.1,1.1-0.2,1.6-0.2c1.5-0.3,3-0.5,4.5-0.7c0.6-0.1,1.2-0.2,1.8-0.3c3.7-0.5,7.4-1,11.2-1.4c1.5-0.2,3.1-0.4,4.6-0.5
			c0.6-0.1,1.1-0.1,1.7-0.2c1.5-0.2,3-0.3,4.5-0.5c0.6-0.1,1.2-0.1,1.8-0.2c5.2-0.5,10.5-0.9,15.7-1.1c0.6,0,1.1-0.1,1.7-0.1
			c1.5-0.1,3-0.2,4.5-0.2c0.3,0,0.5,0,0.8,0c0.3,0,0.7,0,1,0c0.1,0,0.2,0,0.4,0h0.2c2.4-0.1,4.8-0.2,7.3-0.2
			c2.6-0.1,5.2-0.1,7.9-0.1c0.6,0,1.2,0,1.7,0c0.9,0,1.9,0,2.8,0h1.7c0.6,0,1.2,0,1.7,0c3.3,0,6.6,0.1,9.9,0.2
			c1.2,0,2.4,0.1,3.7,0.1c0.7,0,1.4,0,2.1,0.1c0.5,0,1,0,1.5,0.1h0.3c1.5,0,3,0.1,4.5,0.2c0.6,0,1.1,0,1.7,0.1
			c5.3,0.2,10.5,0.6,15.8,1.1c0.5,0,1,0.1,1.4,0.1c0.1,0,0.2,0,0.4,0c0.2,0,0.3,0,0.5,0c1.1,0.1,2.2,0.2,3.3,0.3
			c0.2,0.1,0.5,0.1,0.7,0.1c0.6,0,1.1,0.1,1.7,0.1c0.7,0.1,1.4,0.1,2.1,0.2c1.8,0.2,3.5,0.4,5.2,0.6c0.2,0,0.5,0,0.7,0.1
			c0.1,0,0.1,0,0.1,0c0.1,0,0.2,0,0.3,0c1.5,0.2,3.1,0.4,4.7,0.6c0.9,0.1,1.9,0.2,2.8,0.4c0.6,0.1,1.2,0.2,1.8,0.3
			c1.5,0.2,3,0.4,4.5,0.6c0.5,0.1,1.1,0.2,1.6,0.3c0.3,0,0.5,0.1,0.8,0.2c1.9,0.3,3.8,0.5,5.7,0.9c0,0,0,0,0.1,0
			c0.3,0,0.6,0.1,0.9,0.1c0.5,0.1,1,0.1,1.4,0.3c2.4,0.4,4.9,0.8,7.3,1.3c0.1,0,0.1,0,0.2,0c0.5,0.1,1.1,0.2,1.7,0.3
			c1.5,0.3,3,0.6,4.5,0.9c0.5,0.1,1,0.2,1.6,0.3c1.9,0.4,3.7,0.8,5.6,1.2c2.3,0.5,4.5,1,6.7,1.5c1.4,0.3,2.8,0.7,4.1,1
			c0.6,0.2,1.3,0.3,1.9,0.5c1.5,0.3,3,0.7,4.5,1.1l1.5,0.4l-0.2,0.5c2.1,0.6,4.3,1.1,6.4,1.7c1.7,0.4,3.4,0.9,5.4,1.5
			c1.7,0.4,3.3,0.9,4.6,1.3c0.1,0,0.2,0.1,0.3,0.1l0.3-0.4c0.2,0,0.3,0.1,0.5,0.2c0.5,0.1,1,0.3,1.5,0.5c1.5,0.5,2.9,0.9,4.4,1.4
			c0.5,0.1,0.9,0.3,1.4,0.4l-0.3,0.5c0.6,0.2,1.2,0.4,1.7,0.6c1.6,0.5,3.8,1.2,6,2l0.2,0.1h0c0,0,0.1,0,0.1,0l0.1-0.5l0,0.5
			c0.4,0.1,0.8,0.3,1.2,0.4c0.4,0.2,0.8,0.3,1.2,0.4c2.2,0.7,4.3,1.5,6.4,2.3l0.3-0.4c0.7,0.3,1.4,0.5,2.1,0.8
			c1.4,0.5,2.9,1,4.4,1.6c0.4,0.2,0.9,0.3,1.3,0.5c3.1,1.2,6.1,2.4,9.2,3.6c1.3,0.5,2.6,1,3.9,1.6c1.4,0.6,2.9,1.2,4.3,1.8
			c0.1,0,0.2,0.1,0.3,0.1c0.2,0.1,0.5,0.2,0.7,0.3c0.4,0.1,0.7,0.3,1.1,0.5c1.5,0.6,2.9,1.2,4.3,1.9c0.4,0.2,0.8,0.3,1.2,0.5
			c1.2,0.5,2.4,1,3.5,1.6c0.9,0.4,1.7,0.8,2.6,1.2c1.7,0.7,3.4,1.5,5.1,2.3c0.1,0,0.3,0.1,0.4,0.2c2.1,1,4.2,2,6.3,3l2.2,1.1
			c1.4,0.7,2.9,1.4,4.3,2.2c0.3,0.2,0.7,0.4,1,0.5c2.8,1.4,5.5,2.9,8.3,4.4c2.4,1.3,4.9,2.7,7.3,4.1c0.9,0.5,1.7,1,2.6,1.5
			c0.3,0.2,0.6,0.4,0.9,0.5c0.5,0.3,0.9,0.5,1.4,0.8c1.4,0.8,2.8,1.6,4.2,2.5c0.3,0.2,0.6,0.3,0.9,0.5c3.4,2,6.8,4,10.1,6.2
			c1.8,1.1,3.6,2.3,5.4,3.5c1,0.6,2,1.3,2.9,1.9c0.8,0.5,1.6,1.1,2.4,1.6c1.4,0.9,2.8,1.8,4.1,2.7c0.2,0.1,0.4,0.3,0.6,0.4
			c0,0,0.1,0,0.1,0.1c3.2,2.2,6.3,4.4,9.4,6.6c1.4,1,2.8,2,4.1,3c1.8,1.3,3.5,2.6,5.2,3.9c0.5,0.4,1,0.7,1.5,1.1
			c0.4,0.3,0.7,0.5,1,0.8c1.3,1,2.6,2,3.9,3c0.2,0.1,0.3,0.2,0.5,0.4c2.6,2,5.2,4.1,7.7,6.2c0.9,0.7,1.8,1.5,2.7,2.3
			c0.2,0.2,0.5,0.4,0.7,0.6c2.6,2.1,5.2,4.3,7.8,6.5c0.5,0.5,1.1,0.9,1.6,1.4c0.4,0.3,0.7,0.6,1,0.9c1.2,1.1,2.5,2.2,3.7,3.3
			c0.1,0.1,0.2,0.2,0.3,0.2c4,3.5,7.9,7.2,11.7,10.9c1.5,1.5,3,2.9,4.5,4.4c0.9,0.9,1.8,1.8,2.7,2.6c0.9,0.9,1.8,1.8,2.7,2.7
			c1.2,1.2,2.4,2.4,3.5,3.6c0,0,0,0,0,0c2.2,2.3,4.3,4.5,6.5,6.8c1.5,1.7,3,3.3,4.5,5c0.9,1,1.8,2,2.7,3c0.2,0.2,0.4,0.5,0.6,0.7
			c0.4,0.5,0.8,0.9,1.2,1.3c1.1,1.2,2.1,2.4,3.2,3.6c0.9,1,1.8,2.1,2.6,3.1c1.1,1.2,2.1,2.4,3,3.6c0.1,0.1,0.1,0.1,0.2,0.2h0
			c0.2,0.2,0.3,0.4,0.5,0.6c1.5,1.7,2.9,3.4,4.3,5.2c1.4,1.7,2.7,3.4,4,5.1c1.4,1.9,2.9,3.8,4.3,5.6c0.2,0.2,0.4,0.5,0.5,0.7
			c1.4,1.9,2.8,3.8,4.2,5.7l0.6-0.1C901.2,244.6,899.7,242.6,898.3,240.7z"/>
	</g>
	<g>
		<path class="st0" d="M557.8,242l-0.1,0.3L557.8,242L557.8,242z M550.6,238.5l-0.1,0.3L550.6,238.5L550.6,238.5z"/>
		<path class="st0" d="M934.6,295.8c-1.1-1.9-2.1-3.7-3.3-5.6l-1.2-2.1c-0.1-0.2-0.3-0.5-0.4-0.7l3-0.3l-4.7-7.6l-2.9,0.3
			c-2.5-4.1-4.8-7.7-7-11c-1.5-2.3-3.1-4.7-4.9-7.3c-1.5-2.3-3.2-4.7-5-7.2l-0.1-0.2h0c0-0.1-0.1-0.1-0.1-0.2l2.9-0.5l-5.3-7.3
			l-2.9,0.5c-1.4-1.9-2.9-3.9-4.4-5.9c-0.1-0.1-0.2-0.2-0.3-0.4c-0.1-0.1-0.2-0.3-0.3-0.4l-4.4-5.6c-0.7-0.9-1.4-1.7-2-2.6
			c-0.7-0.8-1.3-1.7-2-2.5c-1.4-1.7-2.8-3.5-4.3-5.2c-0.1-0.1-0.1-0.2-0.2-0.3c-0.1-0.1-0.2-0.2-0.3-0.3l0,0l2.7-0.7l-2.3-2.8
			c-0.9-1.1-1.8-2.1-2.7-3.2l-0.7-0.8l-2.7,0.7c-1.1-1.3-2.2-2.6-3.3-3.8l-0.4-0.4c-0.3-0.3-0.5-0.6-0.8-0.9
			c-0.1-0.1-0.2-0.2-0.3-0.3c-0.1-0.1-0.2-0.2-0.3-0.3c-0.3-0.3-0.6-0.7-0.9-1c-0.6-0.7-1.1-1.3-1.7-1.9c-1.5-1.6-3-3.3-4.5-5
			c-2.1-2.2-4.2-4.4-6.3-6.7l2.6-1l-6.3-6.3l-2.6,0.9c-0.9-0.9-1.9-1.9-2.9-2.8l-4.5-4.4c-4.1-3.9-7.9-7.4-11.6-10.7l2.3-1.1
			l-1.9-1.8c-0.8-0.8-1.7-1.5-2.6-2.3l-2-1.8l-2.4,1.1c-2.8-2.4-5.4-4.6-8-6.7c-0.1-0.1-0.2-0.2-0.3-0.3c-0.1-0.1-0.2-0.2-0.4-0.3
			c-0.9-0.8-1.8-1.5-2.7-2.3c-2.2-1.9-4.6-3.8-7.6-6.1l2.2-1.3l-2-1.6c-1.3-1-2.6-2-3.9-3l-0.9-0.7l-2.2,1.3c-1.7-1.3-3.5-2.6-5.4-4
			c-1.4-1-2.7-2-4.1-3c-3.5-2.5-6.5-4.6-9.3-6.5l1.9-1.4l-2.1-1.4c-1.3-0.9-2.7-1.8-4.1-2.7l-1-0.6l-1.9,1.3c-1-0.7-2.1-1.4-3.1-2
			c-1.8-1.2-3.6-2.3-5.4-3.5c-3.4-2.2-6.9-4.3-10-6.1l1.7-1.4l-2.1-1.3c-1.4-0.9-2.8-1.7-4.2-2.5l-1.1-0.6l-1.7,1.4
			c-0.2-0.1-0.4-0.2-0.6-0.3c-0.7-0.4-1.4-0.8-2.1-1.2c-2.5-1.4-4.9-2.8-7.4-4.1c-2.7-1.5-5.5-2.9-8.2-4.3l1.5-1.5l-2-1.1
			c-1.4-0.8-2.9-1.5-4.4-2.2l-1.1-0.5l-1.5,1.5c-2.2-1.1-4.3-2.1-6.3-3c-0.2-0.1-0.3-0.2-0.5-0.3c-1.8-0.9-3.5-1.7-5.1-2.3l-2.6-1.2
			c-1.1-0.5-2.3-1-3.4-1.5l1.3-1.5l-2.1-0.9c-1.4-0.6-2.9-1.3-4.4-1.9l-1.2-0.5l-1.3,1.5c-1.5-0.7-3-1.3-4.5-1.9
			c-1.3-0.5-2.6-1.1-3.9-1.6c-2.7-1.1-5.7-2.3-9.1-3.6l1.1-1.6L681,76c-1.5-0.5-3-1.1-4.4-1.6l-1.2-0.4l-1.1,1.6
			c-2.2-0.8-4.4-1.6-6.7-2.4c-0.4-0.1-0.8-0.3-1.2-0.4c-0.4-0.1-0.8-0.3-1.2-0.4c-0.1,0-0.2-0.1-0.3-0.1l-0.1,0l-0.2,0
			c-2.2-0.8-4.3-1.4-5.9-1.9c-0.5-0.2-1-0.4-1.5-0.5l0.9-1.6l-7.9-2.4l-0.9,1.6l-0.1,0c-0.1,0-0.3-0.1-0.5-0.1
			c-1.3-0.4-2.9-0.9-4.6-1.3c-2-0.6-3.7-1.1-5.4-1.5c-2.1-0.6-4.2-1.1-6.3-1.7l0.7-1.6l-2-0.5c-1.5-0.4-3.1-0.8-4.6-1.1l-1.4-0.3
			l-0.7,1.5l-4.2-1c-2.3-0.6-4.5-1.1-6.7-1.5c-1.9-0.4-3.7-0.8-5.5-1.2l0.6-1.6l-1.9-0.4c-1.5-0.3-3-0.6-4.6-0.9l-1.4-0.3l-0.6,1.6
			c-2.5-0.5-4.9-0.9-7.3-1.3c-0.4-0.1-0.7-0.2-1-0.2l-1.4-0.2c-1.9-0.4-3.9-0.6-5.7-0.9c-0.3-0.1-0.5-0.1-0.8-0.1l0.3-1.7l-1.9-0.3
			c-1.5-0.2-2.9-0.4-4.5-0.6l-1.5-0.2l-0.4,1.6c-1-0.1-1.9-0.3-2.9-0.4l-0.4-0.1c-1.4-0.2-2.9-0.3-4.3-0.5l-0.1,0
			c-0.1,0-0.2,0-0.3,0c-0.1,0-0.3,0-0.4,0c-0.1,0-0.2,0-0.3,0c-1.7-0.2-3.5-0.4-5.2-0.6c-0.7-0.1-1.4-0.2-2.1-0.2l0.3-1.4l-1.7-0.3
			c-0.2,0-0.4-0.1-0.8-0.1c-1.1-0.1-2.2-0.2-3.1-0.3c-0.4-0.1-0.7-0.1-0.9-0.1h-1.5l-0.3,1.5c-5.5-0.5-10.7-0.9-15.8-1.1l0.1-1.6
			l-1.8-0.1c-1.5-0.1-3.1-0.2-4.6-0.2l-1.7,0l-0.1,1.6c-0.3,0-0.6,0-1,0c-0.4,0-0.8,0-1.2,0l-3.7-0.1c-3.3-0.1-6.7-0.1-9.9-0.2V45
			H509c-1,0-2,0-2.9,0l-1.6,0.1v1.5c-2.6,0-5.3,0.1-7.9,0.1c-2.4,0-4.9,0.1-7.3,0.2h-0.2c-0.1,0-0.3,0-0.4,0l-0.1-1.6l-1.6,0
			c-1.5,0-3.1,0.1-4.6,0.2l-1.8,0.1l0.1,1.6c-4.8,0.3-9.9,0.6-15.8,1.2l0,0l-0.6-1.5l-1.6,0.1c-1.4,0.1-2.8,0.3-4.2,0.4l-1.8,0.2
			l0.3,1.6c-0.1,0-0.3,0-0.5,0c-1.4,0.1-2.8,0.3-4.1,0.5c-3.4,0.4-7,0.8-11.3,1.4l-0.4-1.6l-1.5,0.2c-1.5,0.2-3.1,0.4-4.6,0.7
			l-1.9,0.3l0.4,1.5c-2.4,0.4-4.4,0.7-6.3,1.1l-3.4,0.6c0,0-0.1,0-0.1,0c-0.1,0-0.2,0-0.2,0c-1.2,0.2-2.6,0.5-4,0.7
			c-0.7,0.1-1.3,0.2-2,0.4l-0.1-0.2l-0.5-1.4L415,54c-1.5,0.3-3,0.6-4.6,0.9l-1.9,0.5l0.6,1.5c-2,0.4-4,0.8-6,1.3c0,0-0.1,0-0.1,0
			c-0.1,0-0.1,0-0.2,0c-1.2,0.2-2.3,0.5-3.5,0.8l-0.4,0.1c-0.1,0-0.3,0.1-0.4,0.1c-0.1,0-0.3,0.1-0.4,0.1c-1.5,0.3-3,0.7-4.4,1
			c-0.3,0.1-0.6,0.1-0.9,0.2l-0.7-1.6l-1.4,0.3c-1.5,0.3-3.1,0.7-4.6,1.2l-2,0.5l0.7,1.6c-2.8,0.7-5.6,1.5-8.4,2.3
			c-3.1,0.8-5.7,1.6-8.1,2.4l-0.9-1.6l-7.9,2.4l0.9,1.6c-2.3,0.8-4.7,1.5-7,2.3l-5.3,1.8c-1.5,0.5-3,1.1-4.6,1.6l-0.3-0.5l-1-1.2
			l-1.3,0.7c-1.4,0.5-2.8,1-4.2,1.5l-2,0.8l1.1,1.5c-2.8,1-5.3,2-7.5,2.9c-0.2,0-0.4,0.1-0.6,0.2l-0.2,0.1c0,0-0.1,0-0.1,0
			c-0.1,0-0.1,0.1-0.2,0.1c-3.1,1.3-6.2,2.5-8.7,3.6l-1.3-1.5l-1.2,0.5c-1.5,0.6-3,1.3-4.4,2l-2,1l1.3,1.5c-3.3,1.4-6.2,2.8-8.9,4.1
			c-2.8,1.3-5.7,2.7-8.7,4.1l-1.5-1.5l-1.1,0.6c-1.5,0.7-2.9,1.5-4.3,2.2l-2.1,1.1l1.5,1.5c-5.7,2.9-11.6,6.1-17.9,9.8l-1.7-1.4
			l-1,0.6c-1,0.6-2,1.2-3,1.7l-3.3,1.9l1.7,1.4c-0.1,0.1-0.2,0.1-0.3,0.2c-3.1,1.9-6.2,3.7-9.2,5.6l-0.2,0.1
			c-0.2,0.1-0.3,0.2-0.4,0.3c-2.5,1.6-5.2,3.3-8.2,5.3l-1-0.7l-1.2-0.5l-1,0.7c-1.3,0.8-2.5,1.7-3.8,2.5l-2.1,1.4l2,1.4
			c-2.7,1.9-5.5,3.8-8.2,5.7l-0.7,0.5c-1.7,1.2-3.3,2.4-4.9,3.6c-1.5,1.1-3.1,2.2-4.7,3.4l-2.2-1.3l-0.9,0.7c-1.3,1-2.7,2-3.9,3
			l-2,1.6l2.2,1.3l-0.1,0.1c-1.4,1.1-2.8,2.2-4.1,3.3l-0.7,0.5c-1.3,1-2.6,2.1-3.9,3.1c-1,0.8-2,1.6-3.1,2.6l-4.6,3.8
			c-0.7,0.6-1.4,1.2-2.2,1.8l-2.4-1.1l-2.3,2c-0.8,0.7-1.5,1.3-2.3,2l-1.9,1.8l2.3,1.1c-6.3,5.5-12.5,11.4-18.7,17.5l-1.6-0.6
			l-1.2-0.3l-0.8,0.8c-1.2,1.2-2.3,2.3-3.4,3.4l-1.9,1.9l2.5,0.9c-1.3,1.4-2.6,2.7-3.9,4.1c-2,2-4.1,4.2-6.5,6.9
			c-0.4,0.4-0.8,0.8-1.2,1.2c-0.2,0.2-0.4,0.4-0.5,0.6c-1.3,1.4-2.6,2.8-3.8,4.2c-0.9,1-1.8,2-2.7,3l-2.7-0.7l-0.7,0.8
			c-1.2,1.3-2.3,2.5-3.4,3.9l-1.7,2.1l2.7,0.7c0,0,0,0,0,0c-6.4,7.6-12.4,15.2-17.9,22.6l-2.9-0.5l-0.6,0.9c-1,1.3-2,2.7-3,4.1
			l-1.6,2.2l2.8,0.5c-0.1,0.1-0.1,0.2-0.2,0.3c-1.7,2.3-3.4,4.7-5,7.1c-1.8,2.6-3.4,5-4.9,7.2c-1.7,2.5-3.4,5.1-4.8,7.3
			c-0.8,1.2-1.5,2.3-2.2,3.5l0.5,0l0.6,0c0.6-1,1.3-2,1.9-3.1c1.4-2.2,3.1-4.8,4.8-7.3c1.5-2.2,3.1-4.6,4.9-7.2
			c1.6-2.4,3.3-4.8,5-7.1c0.2-0.2,0.3-0.5,0.5-0.7c0.8-1.1,1.6-2.2,2.4-3.4c0.9-1.3,1.9-2.5,2.8-3.8c5.4-7.3,11.4-14.7,17.6-22.2
			c0.1-0.1,0.2-0.3,0.3-0.4c1.1-1.3,2.1-2.4,3-3.5c0.9-1.1,1.9-2.2,2.8-3.3c0.8-0.9,1.5-1.8,2.3-2.6c1.2-1.4,2.5-2.8,3.8-4.2
			c0.1-0.2,0.2-0.3,0.4-0.5c0.4-0.4,0.8-0.8,1.2-1.2c2.4-2.7,4.5-4.9,6.5-6.9c1.4-1.5,2.7-2.9,4.1-4.3c0,0,0.1-0.1,0.1-0.1
			c1.1-1.1,2.2-2.3,3.4-3.5c0.9-0.9,1.9-1.9,2.8-2.8c6.1-6.1,12.4-11.9,18.6-17.5c0,0,0.1-0.1,0.1-0.1c0.7-0.7,1.5-1.3,2.2-2
			c0.5-0.4,1-0.9,1.5-1.3c0.9-0.8,1.8-1.6,2.8-2.4c0.6-0.5,1.2-1,1.8-1.5l4.6-3.9c1.1-1,2.1-1.8,3.1-2.6c1.3-1.1,2.6-2.1,3.9-3.1
			l0.7-0.6c1.3-1.1,2.7-2.1,4.1-3.2l0.4-0.4l0,0c0.1-0.1,0.2-0.1,0.2-0.2l0.1-0.1c1.3-1,2.6-2,3.9-3c0.9-0.7,1.8-1.4,2.7-2
			c1.5-1.1,2.9-2.2,4.3-3.2c1.6-1.2,3.2-2.4,4.9-3.6l0.8-0.6c2.8-1.9,5.6-3.9,8.4-5.9c0.2-0.1,0.4-0.2,0.5-0.3
			c1.3-0.8,2.6-1.7,3.9-2.6l0.1-0.1c0.9-0.6,1.7-1.1,2.6-1.7c2.9-1.9,5.4-3.5,7.9-5c0.1-0.1,0.2-0.1,0.4-0.2l0.2-0.1
			c3.1-1.9,6.1-3.8,9.2-5.6c0.2-0.1,0.4-0.2,0.6-0.3c0.1,0,0.1-0.1,0.2-0.1c0.2-0.1,0.4-0.2,0.5-0.3l1.1-0.7c1-0.6,2-1.2,3-1.8
			c0.8-0.5,1.7-1,2.5-1.4c6.3-3.6,12.2-6.8,17.9-9.7c0.3-0.2,0.6-0.3,0.9-0.5c1.4-0.7,2.8-1.5,4.3-2.2c0.8-0.4,1.6-0.8,2.4-1.2
			c2.8-1.4,5.7-2.7,8.4-4c2.8-1.3,5.8-2.7,9.2-4.2c0.4-0.2,0.7-0.3,1.1-0.5c1.3-0.6,2.8-1.3,4.3-1.9c0.7-0.3,1.5-0.6,2.3-1
			c2.5-1.1,5.5-2.3,8.5-3.5c0,0,0.1,0,0.1,0c0.1,0,0.1-0.1,0.1-0.1l0.2-0.1c0.1-0.1,0.3-0.1,0.5-0.2c2.4-1,4.9-2,7.8-3
			c0.4-0.1,0.8-0.3,1.2-0.5c1.3-0.5,2.7-1,4.1-1.5c0,0,0.1,0,0.1-0.1c0.1,0,0.1-0.1,0.1-0.1c0.7-0.3,1.4-0.5,2.2-0.8
			c1.4-0.5,2.9-1,4.4-1.6l5.2-1.8c2.4-0.8,4.8-1.6,7.2-2.4c0.4-0.1,0.9-0.3,1.3-0.4c0.8-0.2,1.5-0.5,2.3-0.7l2.2-0.7
			c0.1,0,0.2-0.1,0.3-0.1l0.3-0.1c0.5-0.2,1.1-0.3,1.6-0.5c2.3-0.7,4.9-1.5,7.9-2.3c2.8-0.8,5.7-1.6,8.6-2.3c0.5-0.1,1-0.3,1.4-0.4
			c1.5-0.4,3-0.8,4.5-1.2c0,0,0.1,0,0.1,0c0.1,0,0.1,0,0.3-0.1c0,0,0.1,0,0.1,0c0.1,0,0.2,0,0.2,0c0.4-0.1,0.9-0.2,1.3-0.3
			c0.2,0,0.5-0.1,0.7-0.2c1.4-0.4,2.9-0.7,4.4-1c0.2,0,0.3-0.1,0.4-0.1c0.2,0,0.3-0.1,0.5-0.1l0.4-0.1c1.2-0.3,2.3-0.6,3.5-0.8
			c0,0,0.1,0,0.1,0c0.1,0,0.1,0,0.2,0c2-0.4,4-0.9,6-1.3c0.5-0.1,1-0.2,1.5-0.3c1.5-0.4,3-0.6,4.5-0.9c0.6-0.1,1.3-0.3,1.9-0.4
			c0.6-0.1,1.3-0.2,1.9-0.3c1.3-0.3,2.6-0.5,4-0.7c0,0,0.1,0,0.1,0c0.1,0,0.2,0,0.2,0l3.4-0.5c1.9-0.4,4-0.7,6.4-1.1
			c0.5-0.1,1-0.2,1.6-0.2c1.5-0.3,3-0.5,4.5-0.7c0.6-0.1,1.3-0.2,1.9-0.3c4.3-0.6,7.8-1.1,11.2-1.4c1.4-0.2,2.8-0.3,4.1-0.5
			c0.2,0,0.4,0,0.5,0c0.5,0,1.1-0.1,1.6-0.2c1.4-0.2,2.8-0.3,4.2-0.4l0.3,0c0.6-0.1,1.2-0.1,1.9-0.2c5.8-0.5,10.8-0.9,15.7-1.2
			c0.6,0,1.1,0,1.7-0.1c1.6-0.1,3.1-0.2,4.5-0.2c0.3,0,0.5,0,0.8,0c0.2,0,0.5,0,0.7,0c0.1,0,0.2,0,0.3,0c0.1,0,0.2,0,0.3,0l0.2,0
			c2.4-0.1,4.9-0.2,7.3-0.2c2.6-0.1,5.2-0.1,7.9-0.1c0.6,0,1.2,0,1.8,0c0.9,0,1.9,0,2.8,0h1.7c0.6,0,1.2,0,1.7,0
			c3.1,0,6.5,0.1,9.9,0.2L526,48c0.4,0,0.8,0,1.2,0c0.3,0,0.6,0,0.9,0c0.5,0,1,0,1.5,0.1h0.3c1.5,0,3,0.1,4.5,0.2
			c0.6,0,1.1,0,1.7,0.1c5.1,0.2,10.3,0.6,15.8,1.1c0.5,0,0.9,0.1,1.4,0.1c0.4,0.1,0.5,0,0.9,0.1l0.3,0c1,0.1,2,0.2,3,0.3
			c0.1,0,0.3,0,0.4,0.1c0.1,0,0.2,0,0.4,0c0.5,0,1.1,0.1,1.6,0.1c0.7,0.1,1.5,0.1,2.2,0.2c1.8,0.2,3.5,0.4,5.2,0.6
			c0.1,0,0.3,0,0.4,0.1c0.1,0,0.2,0,0.3,0l0.3,0c0.1,0,0.2,0,0.2,0c1.4,0.2,2.9,0.4,4.3,0.6l0.4,0c0.9,0.1,1.8,0.2,2.8,0.4
			c0.6,0.1,1.3,0.2,1.9,0.3c1.5,0.2,3.1,0.4,4.5,0.6c0.3,0,0.5,0.1,0.8,0.1c0.3,0,0.5,0.1,0.8,0.1c0.3,0,0.6,0.1,0.8,0.2
			c1.9,0.3,3.8,0.5,5.7,0.9l1,0.1c0.1,0,0.3,0,0.4,0.1c0.3,0,0.6,0.1,1,0.2c2.4,0.4,4.8,0.8,7.2,1.3c0.1,0,0.2,0,0.3,0.1
			c0.3,0,0.5,0.1,0.8,0.2c0.3,0.1,0.6,0.1,0.8,0.2c1.5,0.3,3.1,0.6,4.5,0.9c0.5,0.1,1,0.2,1.5,0.3c1.8,0.4,3.7,0.8,5.6,1.2
			c2.2,0.4,4.4,0.9,6.7,1.5l4,1l2,0.5c1.5,0.3,3,0.7,4.5,1.1c0.5,0.1,0.9,0.3,1.4,0.4c2.1,0.6,4.3,1.1,6.4,1.7
			c1.7,0.4,3.4,0.9,5.4,1.5c1.7,0.4,3.3,0.9,4.6,1.3c0.1,0,0.2,0.1,0.3,0.1c0,0,0.1,0,0.2,0l0.5,0.1c0.2,0.1,0.5,0.1,0.7,0.2
			c0.3,0.1,0.5,0.2,0.8,0.2c0.8,0.2,1.5,0.5,2.2,0.7c0.7,0.2,1.5,0.5,2.2,0.7l0.6,0.2c0.2,0.1,0.5,0.2,0.7,0.2
			c0.6,0.2,1.2,0.4,1.7,0.6c1.6,0.5,3.8,1.2,6,2l0.2,0.1h0c0,0,0.1,0,0.1,0l0.1-0.5l0,0.5c0.4,0.1,0.8,0.3,1.2,0.4
			c0.4,0.2,0.8,0.3,1.2,0.4c2.2,0.7,4.3,1.5,6.4,2.3c0.7,0.3,1.5,0.5,2.2,0.8c1.5,0.5,2.9,1,4.4,1.6c0.4,0.1,0.8,0.3,1.2,0.4
			c3.5,1.3,6.5,2.5,9.3,3.7c1.3,0.5,2.6,1,3.9,1.6c1.4,0.6,2.8,1.2,4.2,1.8c0.1,0.1,0.3,0.1,0.5,0.2c0.1,0,0.2,0.1,0.4,0.2
			c0.1,0,0.3,0.1,0.4,0.2c0.2,0.1,0.4,0.1,0.5,0.2c0.2,0.1,0.4,0.2,0.6,0.2c1.3,0.5,2.7,1.1,4.3,1.9c0.4,0.2,0.7,0.3,1.1,0.5
			c1.2,0.5,2.4,1.1,3.6,1.6l2.6,1.2c1.6,0.7,3.3,1.5,5.1,2.3c0.1,0,0.2,0.1,0.4,0.2c2,0.9,4,1.9,6.1,2.9c0.8,0.4,1.6,0.8,2.4,1.2
			c1.4,0.6,2.7,1.3,4.3,2.2c0.3,0.2,0.6,0.3,0.9,0.5c2.8,1.4,5.6,2.9,8.4,4.4c2.5,1.3,4.9,2.7,7.4,4.1c0.7,0.4,1.4,0.8,2.1,1.2
			c0.1,0,0.2,0.1,0.3,0.2c0.4,0.2,0.7,0.4,1,0.6c0.3,0.1,0.5,0.3,0.7,0.4c0.2,0.1,0.5,0.3,0.7,0.4c1.5,0.8,2.9,1.7,4.2,2.5
			c0.2,0.1,0.5,0.3,0.7,0.4c3.2,1.9,6.8,4,10.3,6.3c1.8,1.1,3.6,2.3,5.4,3.4c0.9,0.6,1.8,1.2,2.8,1.8c0.9,0.6,1.7,1.2,2.6,1.7
			c1.2,0.8,2.5,1.6,4,2.7c0.1,0.1,0.2,0.2,0.3,0.2c0.1,0,0.2,0.1,0.2,0.2c0,0,0,0,0.1,0c2.9,2,5.9,4.1,9.5,6.7c1.4,1,2.8,2,4.1,3
			c1.8,1.3,3.4,2.5,5.1,3.7c0.6,0.4,1.1,0.8,1.6,1.2l1,0.8c1.3,1,2.6,2,3.9,3c0.1,0.1,0.2,0.2,0.3,0.2c3.1,2.4,5.6,4.4,7.9,6.4
			c0.9,0.7,1.8,1.4,2.7,2.2c0.1,0.1,0.2,0.2,0.3,0.3c0.1,0.1,0.2,0.2,0.4,0.3c2.4,2,4.9,4.1,7.6,6.4c0.6,0.5,1.2,1,1.8,1.6
			c0.2,0.2,0.4,0.4,0.6,0.5c0.1,0.1,0.2,0.2,0.3,0.3l1.2,1.1c0.8,0.8,1.7,1.5,2.5,2.3c0,0,0.1,0,0.1,0.1c3.8,3.4,7.6,7,11.9,11
			l4.5,4.4c0.9,0.8,1.7,1.6,2.5,2.5c1,1,1.9,1.9,2.8,2.8c0.6,0.6,1.2,1.2,1.8,1.8c0.5,0.6,1.1,1.1,1.6,1.6c0,0,0.1,0.1,0.1,0.1
			c2.2,2.3,4.4,4.6,6.5,6.9c1.5,1.7,3,3.3,4.5,5c0.6,0.6,1.1,1.3,1.7,1.9c0.3,0.3,0.6,0.7,1,1.1c0.1,0.1,0.2,0.2,0.3,0.3
			c0.1,0.1,0.2,0.3,0.3,0.3c0.3,0.3,0.5,0.6,0.8,0.9l0.4,0.5c1,1.1,2,2.3,3,3.4c0.9,1.1,1.9,2.2,2.8,3.3c0.9,1,1.8,2.1,2.6,3.1
			l0.3,0.3l0.3,0.4l0.2,0.2h0c0,0,0.1,0.1,0.1,0.1c0.1,0.1,0.2,0.2,0.3,0.3c1.4,1.7,2.9,3.5,4.3,5.2c0.7,0.8,1.3,1.7,2,2.5
			c0.7,0.9,1.4,1.7,2,2.6l4.4,5.6c0.1,0.1,0.2,0.2,0.3,0.4c0.1,0.1,0.2,0.3,0.3,0.4c1.4,1.8,2.8,3.6,4.1,5.5
			c0.9,1.2,1.8,2.4,2.6,3.5l0.1,0.1c0,0.1,0.1,0.2,0.1,0.2c0.5,0.7,1,1.4,1.5,2.1c0.3,0.4,0.6,0.9,1,1.3c0.1,0.2,0.3,0.4,0.5,0.6
			l0,0.4h0.2c1.7,2.4,3.3,4.8,4.8,7c1.8,2.6,3.4,5,4.9,7.3c2.1,3.2,4.4,6.7,6.7,10.6c0.9,1.4,1.8,2.9,2.7,4.4l0.2,0.2
			c0.4,0.6,0.8,1.3,1.2,1.9c0.2,0.3,0.4,0.7,0.6,1c0.2,0.4,0.5,0.7,0.7,1.1l1.2,2.1c1.1,1.9,2.2,3.7,3.2,5.6
			c4,6.9,7.9,14.3,12.1,22.7h1.1C942.7,310.4,938.6,302.8,934.6,295.8z"/>
		<path class="st0" d="M930.2,288.1l1.2,2.1c1.1,1.9,2.2,3.7,3.3,5.6c4,7,8.1,14.7,12.4,23.2h61.4c-20-39.9-44.7-77.3-73.4-111.4
			l-0.1-0.2c-0.2-0.2-0.4-0.5-0.6-0.7c-0.3-0.3-0.5-0.6-0.8-0.8c-7.7-9.2-16.1-18.4-24.9-27.4c-1.1-1.2-2.3-2.4-3.5-3.6
			c-8-8.2-16.6-16.4-25.4-24.2c-1.2-1.1-2.4-2.2-3.7-3.3c-8.5-7.5-17.1-14.6-25.6-21.2c-1.1-0.9-2.2-1.8-3.4-2.7l-0.5-0.3
			c-8.4-6.4-17-12.6-25.6-18.5c-1.4-1-2.7-1.9-4.1-2.7c-8.6-5.8-17.1-11.1-25.5-16c-1.5-0.9-2.9-1.7-4.2-2.4
			c-7.7-4.5-15.9-9-25.2-13.8l-1.4-0.7c-1-0.5-1.9-0.9-2.8-1.4c-7.8-3.9-16.1-7.9-24.8-11.7c-1.5-0.6-2.9-1.3-4.3-1.9
			c-8-3.5-16.3-6.8-24.5-9.9c-1.4-0.5-2.9-1.1-4.4-1.6c-8.1-3-16.2-5.8-24.1-8.2c-1.7-0.6-3.1-1-4.4-1.4c-8.3-2.6-16-4.7-23.7-6.7
			c-1.5-0.4-3-0.8-4.5-1.1c-8.3-2.1-15.9-3.8-23.3-5.3c-1.4-0.3-3-0.6-4.5-0.9c-7.3-1.5-15-2.9-23.1-4c-1.5-0.2-3-0.5-4.5-0.6
			c-7.5-1.1-15.2-2-22.8-2.8c-1.4-0.2-2.8-0.3-4.2-0.4l-0.3,0c-6.6-0.7-13.8-1.2-22.6-1.7c-1.4-0.1-2.8-0.1-4.5-0.2
			c-6.6-0.3-13.7-0.5-22.6-0.5H509c-0.9,0-1.9,0-2.8,0c-7.5,0-15.1,0.2-22.5,0.5c-0.8,0-1.6,0.1-2.3,0.1c-0.7,0-1.5,0.1-2.2,0.1
			c-7.9,0.4-15.5,1-22.6,1.7l-0.4,0c-1.4,0.1-2.8,0.3-4.1,0.4c-7.2,0.7-14.6,1.6-22.7,2.8c-1.5,0.2-3,0.4-4.5,0.7
			c-7.6,1.1-15.3,2.5-22.9,4c-1.6,0.3-3.2,0.6-4.5,0.9c-7.9,1.6-15.7,3.4-23.1,5.3c-1.5,0.3-3,0.7-4.5,1.1
			c-8.2,2.1-16.1,4.3-23.5,6.6c-1.4,0.4-2.8,0.8-4.4,1.4c-8.1,2.6-16.2,5.3-23.8,8.1c-1.4,0.5-2.9,1-4.4,1.6
			c-8.7,3.3-16.6,6.5-24.2,9.8c-1.5,0.6-2.9,1.2-4.3,1.9c-7.5,3.3-15.6,7.1-24.6,11.6c-0.9,0.5-1.9,1-2.8,1.4l-1.4,0.7
			c-9.2,4.7-17.3,9.2-24.9,13.6c-1.3,0.7-2.7,1.5-4.2,2.4c-8.5,5-17,10.3-25.1,15.8c-1.4,0.9-2.7,1.8-4.1,2.7
			c-8.5,5.7-17,11.8-25.3,18.2c-1.5,1.1-2.7,2-3.9,3c-8.7,6.7-17.2,13.7-25.4,20.9c-0.6,0.5-1.2,1.1-1.8,1.6
			c-0.6,0.6-1.3,1.1-1.9,1.7c-8.6,7.6-17,15.6-25.1,23.7l-3.5,3.6c-8.1,8.3-16.2,17.1-24.7,26.9c-1.1,1.3-2.2,2.6-3.3,3.9
			C54.1,241.8,29.4,279.3,9.5,319h285.7l70-81.2l3-3.5l6.4-7.4l21.5-24.9v0l33.6,22.4l7.3,4.8l0.4-0.6l0.6-0.8l52.6-70.2l4.1,6.1
			l20.4,30.6l4,6l33.1,49.6l-5,7.2l6.6-4.8l5.1-4.6l0.8-0.8l39.6-35.6L687.1,319h258.8c-4.2-8.4-8.2-15.8-12.1-22.7
			c-1.1-1.9-2.1-3.7-3.2-5.6l-1.2-2.1c-0.2-0.4-0.4-0.7-0.7-1.1c-0.2-0.3-0.4-0.7-0.6-1c-0.4-0.6-0.8-1.3-1.2-1.9l-0.2-0.2
			c-0.9-1.5-1.8-3-2.7-4.4c-2.4-3.9-4.6-7.4-6.7-10.6c-1.5-2.3-3.1-4.7-4.9-7.3c-1.5-2.2-3.1-4.6-4.8-7h-0.2l0-0.4
			c-0.2-0.2-0.3-0.4-0.5-0.6c-0.3-0.4-0.6-0.9-1-1.3c-0.5-0.7-1-1.4-1.5-2.1c0,0-0.1-0.1-0.1-0.2l-0.1-0.1c-0.8-1.1-1.7-2.3-2.6-3.5
			c-1.3-1.8-2.7-3.7-4.1-5.5c-0.1-0.1-0.2-0.3-0.3-0.4c-0.1-0.1-0.2-0.2-0.3-0.4l-4.4-5.6c-0.7-0.9-1.4-1.7-2-2.6
			c-0.7-0.8-1.3-1.7-2-2.5c-1.4-1.7-2.8-3.5-4.3-5.2c-0.1-0.1-0.2-0.2-0.3-0.3c0,0-0.1-0.1-0.1-0.1h0l-0.2-0.2l-0.3-0.4l-0.3-0.3
			c-0.8-1-1.7-2.1-2.6-3.1c-0.9-1.1-1.9-2.2-2.8-3.3c-1-1.2-2-2.3-3-3.4l-0.4-0.5c-0.3-0.3-0.6-0.6-0.8-0.9
			c-0.1-0.1-0.2-0.2-0.3-0.3c-0.1-0.1-0.2-0.2-0.3-0.3c-0.3-0.4-0.6-0.7-1-1.1c-0.6-0.7-1.1-1.3-1.7-1.9c-1.5-1.6-3-3.3-4.5-5
			c-2.1-2.3-4.3-4.6-6.5-6.9c0,0-0.1-0.1-0.1-0.1c-0.5-0.5-1.1-1.1-1.6-1.6c-0.6-0.6-1.2-1.2-1.8-1.8c-0.9-0.9-1.9-1.9-2.8-2.8
			c-0.8-0.8-1.7-1.6-2.5-2.5l-4.5-4.4c-4.2-4-8.1-7.6-11.9-11c0,0-0.1-0.1-0.1-0.1c-0.8-0.8-1.7-1.5-2.5-2.3l-1.2-1.1
			c-0.1-0.1-0.2-0.2-0.3-0.3c-0.2-0.2-0.4-0.4-0.6-0.5c-0.6-0.5-1.2-1-1.8-1.6c-2.7-2.3-5.2-4.4-7.6-6.4c-0.1-0.1-0.2-0.2-0.4-0.3
			c-0.1-0.1-0.2-0.2-0.3-0.3c-0.9-0.8-1.8-1.5-2.7-2.2c-2.3-2-4.8-4-7.9-6.4c-0.1-0.1-0.2-0.2-0.3-0.2c-1.3-1-2.5-2-3.9-3l-1-0.8
			c-0.5-0.4-1.1-0.8-1.6-1.2c-1.6-1.2-3.3-2.5-5.1-3.7c-1.4-1-2.7-2-4.1-3c-3.6-2.6-6.6-4.7-9.5-6.7c0,0,0,0-0.1,0
			c-0.1-0.1-0.2-0.1-0.2-0.2c-0.1-0.1-0.2-0.2-0.3-0.2c-1.5-1.1-2.8-1.9-4-2.7c-0.9-0.6-1.7-1.2-2.6-1.7c-0.9-0.6-1.9-1.2-2.8-1.8
			c-1.8-1.2-3.6-2.3-5.4-3.4c-3.6-2.3-7.2-4.4-10.3-6.3c-0.3-0.1-0.5-0.3-0.7-0.4c-1.3-0.8-2.7-1.7-4.2-2.5
			c-0.3-0.1-0.5-0.3-0.7-0.4c-0.2-0.1-0.5-0.3-0.7-0.4c-0.3-0.2-0.7-0.4-1-0.6c-0.1-0.1-0.2-0.1-0.3-0.2c-0.7-0.4-1.4-0.8-2.1-1.2
			c-2.5-1.4-4.9-2.7-7.4-4.1c-2.8-1.5-5.6-3-8.4-4.4c-0.3-0.2-0.6-0.3-0.9-0.5c-1.5-0.8-2.9-1.5-4.3-2.2c-0.8-0.4-1.6-0.8-2.4-1.2
			c-2.1-1-4.1-2-6.1-2.9c-0.2-0.1-0.3-0.2-0.4-0.2c-1.8-0.9-3.5-1.7-5.1-2.3l-2.6-1.2c-1.2-0.6-2.4-1.1-3.6-1.6
			c-0.4-0.2-0.7-0.3-1.1-0.5c-1.6-0.7-3-1.3-4.3-1.9c-0.2-0.1-0.4-0.1-0.6-0.2c-0.2-0.1-0.3-0.2-0.5-0.2c-0.1-0.1-0.3-0.1-0.4-0.2
			c-0.1-0.1-0.2-0.1-0.4-0.2c-0.2-0.1-0.3-0.1-0.5-0.2c-1.4-0.6-2.8-1.2-4.2-1.8c-1.3-0.5-2.6-1.1-3.9-1.6c-2.8-1.1-5.8-2.3-9.3-3.7
			c-0.4-0.1-0.8-0.3-1.2-0.4c-1.4-0.6-2.9-1.1-4.4-1.6c-0.7-0.3-1.5-0.5-2.2-0.8c-2.1-0.8-4.3-1.5-6.4-2.3c-0.4-0.1-0.8-0.3-1.2-0.4
			c-0.4-0.1-0.8-0.3-1.2-0.4l0-0.5l-0.1,0.5c0,0-0.1,0-0.1,0h0l-0.2-0.1c-2.2-0.8-4.4-1.4-6-2c-0.6-0.2-1.2-0.4-1.7-0.6
			c-0.2-0.1-0.5-0.1-0.7-0.2l-0.6-0.2c-0.7-0.2-1.5-0.5-2.2-0.7c-0.7-0.2-1.5-0.5-2.2-0.7c-0.2-0.1-0.5-0.2-0.8-0.2
			c-0.2-0.1-0.5-0.2-0.7-0.2l-0.5-0.1c-0.1,0-0.1,0-0.2,0c-0.1,0-0.2-0.1-0.3-0.1c-1.3-0.4-2.9-0.9-4.6-1.3c-2-0.6-3.7-1.1-5.4-1.5
			c-2.1-0.6-4.3-1.2-6.4-1.7c-0.5-0.1-0.9-0.3-1.4-0.4c-1.5-0.4-3-0.8-4.5-1.1l-2-0.5l-4-1c-2.3-0.6-4.5-1.1-6.7-1.5
			c-1.9-0.4-3.8-0.8-5.6-1.2c-0.5-0.1-1-0.2-1.5-0.3c-1.5-0.3-3-0.6-4.5-0.9c-0.3,0-0.5-0.1-0.8-0.2c-0.3,0-0.6-0.1-0.8-0.2
			c-0.1,0-0.2,0-0.3-0.1c-2.4-0.5-4.8-0.9-7.2-1.3c-0.4-0.1-0.7-0.2-1-0.2c-0.1,0-0.3,0-0.4-0.1l-1-0.1c-1.9-0.4-3.8-0.6-5.7-0.9
			c-0.3-0.1-0.6-0.1-0.8-0.2c-0.3,0-0.5-0.1-0.8-0.1c-0.3,0-0.5-0.1-0.8-0.1c-1.5-0.2-3-0.4-4.5-0.6c-0.6-0.1-1.3-0.2-1.9-0.3
			c-0.9-0.1-1.9-0.3-2.8-0.4l-0.4,0c-1.4-0.2-2.9-0.3-4.3-0.6c0,0-0.1,0-0.2,0l-0.3,0c-0.1,0-0.2,0-0.3,0c-0.1,0-0.3,0-0.4-0.1
			c-1.7-0.2-3.4-0.4-5.2-0.6c-0.7-0.1-1.4-0.1-2.2-0.2c-0.5-0.1-1.1-0.1-1.6-0.1c-0.2,0-0.3,0-0.4,0c-0.1,0-0.3,0-0.4-0.1
			c-1-0.1-2-0.2-3-0.3l-0.3,0c-0.4-0.1-0.5,0-0.9-0.1c-0.5,0-1-0.1-1.4-0.1c-5.5-0.5-10.7-0.9-15.8-1.1c-0.6,0-1.1-0.1-1.7-0.1
			c-1.6-0.1-3.1-0.2-4.5-0.2h-0.3c-0.5,0-1-0.1-1.5-0.1c-0.3,0-0.6,0-0.9,0c-0.4,0-0.8,0-1.2,0l-3.7-0.1c-3.3-0.1-6.7-0.1-9.9-0.2
			c-0.6,0-1.2,0-1.7,0H509c-0.9,0-1.9,0-2.8,0c-0.6,0-1.2,0-1.8,0c-2.6,0-5.3,0.1-7.9,0.1c-2.4,0-4.9,0.1-7.3,0.2l-0.2,0
			c-0.1,0-0.2,0-0.3,0c-0.1,0-0.2,0-0.3,0c-0.2,0-0.5,0-0.7,0c-0.2,0-0.5,0-0.8,0c-1.4,0-2.9,0.1-4.5,0.2c-0.6,0-1.1,0.1-1.7,0.1
			c-4.8,0.3-9.9,0.6-15.7,1.2c-0.6,0.1-1.2,0.1-1.9,0.2l-0.3,0c-1.4,0.1-2.8,0.3-4.2,0.4c-0.5,0.1-1.1,0.1-1.6,0.2
			c-0.2,0-0.4,0-0.5,0c-1.4,0.1-2.8,0.3-4.1,0.5c-3.3,0.3-6.9,0.8-11.2,1.4c-0.6,0.1-1.3,0.2-1.9,0.3c-1.5,0.2-3,0.4-4.5,0.7
			c-0.6,0.1-1.1,0.2-1.6,0.2c-2.4,0.3-4.4,0.7-6.4,1.1l-3.4,0.5c0,0-0.1,0-0.2,0c0,0-0.1,0-0.1,0c-1.4,0.2-2.7,0.5-4,0.7
			c-0.6,0.1-1.3,0.2-1.9,0.3c-0.6,0.1-1.3,0.3-1.9,0.4c-1.5,0.3-3,0.5-4.5,0.9c-0.5,0.1-1,0.2-1.5,0.3c-2,0.4-4.1,0.9-6,1.3
			c0,0-0.1,0-0.2,0c0,0-0.1,0-0.1,0c-1.2,0.2-2.4,0.5-3.5,0.8l-0.4,0.1c-0.1,0-0.3,0.1-0.5,0.1c-0.1,0-0.3,0.1-0.4,0.1
			c-1.5,0.3-3,0.7-4.4,1c-0.2,0.1-0.4,0.1-0.7,0.2c-0.4,0.1-0.8,0.2-1.3,0.3c0,0-0.1,0-0.2,0c0,0-0.1,0-0.1,0c-0.1,0-0.2,0-0.3,0.1
			c0,0-0.1,0-0.1,0c-1.5,0.3-3,0.8-4.5,1.2c-0.5,0.1-1,0.3-1.4,0.4c-2.9,0.8-5.8,1.5-8.6,2.3c-3,0.8-5.5,1.5-7.9,2.3
			c-0.5,0.2-1.1,0.3-1.6,0.5l-0.3,0.1c-0.1,0-0.2,0-0.3,0.1l-2.2,0.7c-0.8,0.2-1.5,0.5-2.3,0.7c-0.4,0.1-0.9,0.3-1.3,0.4
			c-2.4,0.8-4.8,1.6-7.2,2.4l-5.2,1.8c-1.5,0.5-3,1-4.4,1.6c-0.7,0.3-1.5,0.5-2.2,0.8c0,0-0.1,0-0.1,0.1c0,0-0.1,0-0.1,0.1
			c-1.4,0.5-2.8,1-4.1,1.5c-0.4,0.2-0.8,0.3-1.2,0.5c-2.9,1.1-5.4,2.1-7.8,3c-0.2,0.1-0.4,0.1-0.5,0.2l-0.2,0.1c0,0-0.1,0-0.1,0.1
			c-0.1,0-0.1,0-0.1,0c-3,1.2-6,2.5-8.5,3.5c-0.8,0.3-1.6,0.7-2.3,1c-1.5,0.6-3,1.3-4.3,1.9c-0.4,0.2-0.7,0.3-1.1,0.5
			c-3.4,1.5-6.4,2.9-9.2,4.2c-2.7,1.3-5.5,2.6-8.4,4c-0.8,0.4-1.6,0.8-2.4,1.2c-1.4,0.7-2.9,1.5-4.3,2.2c-0.3,0.2-0.6,0.3-0.9,0.5
			c-5.7,2.9-11.6,6.1-17.9,9.7c-0.8,0.5-1.6,0.9-2.5,1.4c-1,0.6-2,1.2-3,1.8l-1.1,0.7c-0.2,0.1-0.4,0.2-0.5,0.3
			c-0.1,0-0.1,0.1-0.2,0.1c-0.2,0.1-0.4,0.2-0.6,0.3c-3.1,1.9-6.2,3.7-9.2,5.6l-0.2,0.1c-0.1,0.1-0.2,0.1-0.4,0.2
			c-2.5,1.5-5,3.2-7.9,5c-0.8,0.5-1.7,1.1-2.6,1.7l-0.1,0.1c-1.3,0.9-2.6,1.8-3.9,2.6c-0.2,0.1-0.4,0.2-0.5,0.3
			c-2.8,1.9-5.7,3.9-8.4,5.9l-0.8,0.6c-1.7,1.2-3.3,2.4-4.9,3.6c-1.4,1-2.9,2.1-4.3,3.2c-0.9,0.7-1.8,1.3-2.7,2c-1.3,1-2.6,2-3.9,3
			l-0.1,0.1c0,0-0.1,0.1-0.2,0.2l0,0l-0.4,0.4c-1.4,1.1-2.8,2.1-4.1,3.2l-0.7,0.6c-1.3,1-2.6,2.1-3.9,3.1c-1,0.8-2,1.6-3.1,2.6
			l-4.6,3.9c-0.6,0.5-1.2,1-1.8,1.5c-0.9,0.8-1.8,1.6-2.8,2.4c-0.5,0.4-1,0.9-1.5,1.3c-0.8,0.7-1.5,1.3-2.2,2c0,0-0.1,0.1-0.1,0.1
			c-6.2,5.5-12.5,11.4-18.6,17.5c-0.9,0.9-1.9,1.9-2.8,2.8c-1.1,1.1-2.3,2.3-3.4,3.5c0,0-0.1,0.1-0.1,0.1c-1.4,1.4-2.8,2.8-4.1,4.3
			c-2,2-4,4.2-6.5,6.9c-0.4,0.4-0.8,0.8-1.2,1.2c-0.2,0.2-0.3,0.3-0.4,0.5c-1.3,1.4-2.6,2.8-3.8,4.2c-0.8,0.9-1.6,1.7-2.3,2.6
			c-1,1.1-1.9,2.2-2.8,3.3c-0.9,1-1.9,2.1-3,3.5c-0.1,0.1-0.2,0.3-0.3,0.4c-6.3,7.5-12.2,14.9-17.6,22.2c-1,1.3-1.9,2.5-2.8,3.8
			c-0.9,1.2-1.7,2.3-2.4,3.4c-0.2,0.2-0.3,0.5-0.5,0.7c-1.7,2.3-3.4,4.7-5,7.1c-1.8,2.6-3.4,5-4.9,7.2c-1.7,2.5-3.4,5.1-4.8,7.3
			c-0.6,1-1.3,2-1.9,3.1l-0.6,0l-0.5,0c0.7-1.2,1.5-2.3,2.2-3.5c1.4-2.2,3.1-4.8,4.8-7.3c1.5-2.2,3.1-4.6,4.9-7.2
			c1.6-2.4,3.3-4.8,5-7.1c0.1-0.1,0.1-0.2,0.2-0.3l-2.8-0.5l1.6-2.2c1-1.4,2-2.8,3-4.1l0.6-0.9l2.9,0.5c5.5-7.4,11.6-15,17.9-22.6
			c0,0,0,0,0,0l-2.7-0.7l1.7-2.1c1.1-1.4,2.2-2.6,3.4-3.9l0.7-0.8l2.7,0.7c0.9-1,1.8-2,2.7-3c1.2-1.4,2.5-2.8,3.8-4.2
			c0.1-0.2,0.3-0.4,0.5-0.6c0.4-0.4,0.8-0.8,1.2-1.2c2.4-2.7,4.5-4.9,6.5-6.9c1.3-1.4,2.6-2.7,3.9-4.1l-2.5-0.9l1.9-1.9
			c1.1-1.1,2.2-2.3,3.4-3.4l0.8-0.8l1.2,0.3l1.6,0.6c6.2-6.1,12.4-12,18.7-17.5l-2.3-1.1l1.9-1.8c0.8-0.7,1.5-1.4,2.3-2l2.3-2
			l2.4,1.1c0.7-0.6,1.4-1.2,2.2-1.8l4.6-3.8c1.1-1,2.1-1.8,3.1-2.6c1.3-1.1,2.6-2.1,3.9-3.1l0.7-0.5c1.3-1.1,2.7-2.2,4.1-3.3
			l0.1-0.1l-2.2-1.3l2-1.6c1.3-1,2.6-2,3.9-3l0.9-0.7l2.2,1.3c1.6-1.2,3.2-2.3,4.7-3.4c1.6-1.2,3.2-2.4,4.9-3.6l0.7-0.5
			c2.7-1.9,5.4-3.8,8.2-5.7l-2-1.4l2.1-1.4c1.2-0.8,2.5-1.7,3.8-2.5l1-0.7l1.2,0.5l1,0.7c3-2,5.7-3.7,8.2-5.3
			c0.1-0.1,0.3-0.2,0.4-0.3l0.2-0.1c3-1.9,6.1-3.8,9.2-5.6c0.1-0.1,0.2-0.1,0.3-0.2l-1.7-1.4l3.3-1.9c1-0.6,2-1.2,3-1.7l1-0.6
			l1.7,1.4c6.3-3.6,12.2-6.8,17.9-9.8l-1.5-1.5l2.1-1.1c1.4-0.7,2.8-1.5,4.3-2.2l1.1-0.6l1.5,1.5c2.9-1.5,5.9-2.8,8.7-4.1
			c2.7-1.3,5.6-2.6,8.9-4.1l-1.3-1.5l2-1c1.4-0.7,2.9-1.3,4.4-2l1.2-0.5l1.3,1.5c2.6-1.1,5.6-2.4,8.7-3.6c0,0,0.1,0,0.2-0.1
			c0,0,0.1,0,0.1,0l0.2-0.1c0.2-0.1,0.4-0.2,0.6-0.2c2.2-0.9,4.7-1.9,7.5-2.9l-1.1-1.5l2-0.8c1.4-0.6,2.8-1.1,4.2-1.5l1.3-0.7l1,1.2
			l0.3,0.5c1.6-0.6,3.1-1.1,4.6-1.6l5.3-1.8c2.3-0.8,4.7-1.6,7-2.3l-0.9-1.6l7.9-2.4l0.9,1.6c2.4-0.8,5-1.5,8.1-2.4
			c2.8-0.8,5.6-1.6,8.4-2.3l-0.7-1.6l2-0.5c1.5-0.4,3.1-0.8,4.6-1.2l1.4-0.3l0.7,1.6c0.3-0.1,0.6-0.1,0.9-0.2c1.4-0.3,2.9-0.7,4.4-1
			c0.1,0,0.3-0.1,0.4-0.1c0.1,0,0.3-0.1,0.4-0.1l0.4-0.1c1.2-0.3,2.3-0.6,3.5-0.8c0,0,0.1,0,0.2,0c0,0,0.1,0,0.1,0
			c2-0.4,4-0.9,6-1.3l-0.6-1.5l1.9-0.5c1.5-0.4,3-0.7,4.6-0.9l1.4-0.3l0.5,1.4l0.1,0.2c0.7-0.1,1.3-0.3,2-0.4c1.4-0.3,2.7-0.5,4-0.7
			c0,0,0.1,0,0.2,0c0,0,0.1,0,0.1,0l3.4-0.6c1.9-0.4,3.9-0.7,6.3-1.1l-0.4-1.5l1.9-0.3c1.5-0.3,3.1-0.5,4.6-0.7l1.5-0.2l0.4,1.6
			c4.3-0.6,7.9-1.1,11.3-1.4c1.4-0.2,2.8-0.3,4.1-0.5c0.1,0,0.3,0,0.5,0l-0.3-1.6l1.8-0.2c1.4-0.2,2.8-0.3,4.2-0.4l1.6-0.1l0.6,1.5
			l0,0c5.8-0.5,10.9-0.9,15.8-1.2l-0.1-1.6l1.8-0.1c1.5-0.1,3.1-0.2,4.6-0.2l1.6,0l0.1,1.6c0.1,0,0.3,0,0.4,0h0.2
			c2.4-0.1,4.9-0.2,7.3-0.2c2.6-0.1,5.2-0.1,7.9-0.1v-1.5l1.6-0.1c0.9,0,1.9,0,2.9,0h3.5v1.6c3.1,0,6.6,0.1,9.9,0.2L526,47
			c0.4,0,0.8,0,1.2,0c0.3,0,0.6,0,1,0l0.1-1.6l1.7,0c1.5,0,3.1,0.1,4.6,0.2l1.8,0.1l-0.1,1.6c5.1,0.2,10.3,0.6,15.8,1.1l0.3-1.5h1.5
			c0.2,0,0.5,0,0.9,0.1c1,0.1,2.1,0.1,3.1,0.3c0.5,0.1,0.7,0.1,0.8,0.1l1.7,0.3l-0.3,1.4c0.7,0.1,1.4,0.1,2.1,0.2
			c1.8,0.2,3.5,0.4,5.2,0.6c0.1,0,0.2,0,0.3,0c0.1,0,0.3,0,0.4,0c0.1,0,0.2,0,0.3,0l0.1,0c1.4,0.2,2.9,0.4,4.3,0.5l0.4,0.1
			c1,0.1,1.9,0.2,2.9,0.4l0.4-1.6l1.5,0.2c1.5,0.2,3,0.4,4.5,0.6l1.9,0.3l-0.3,1.7c0.3,0,0.5,0.1,0.8,0.1c1.9,0.3,3.8,0.5,5.7,0.9
			l1.4,0.2c0.3,0,0.7,0.1,1,0.2c2.3,0.4,4.8,0.8,7.3,1.3l0.6-1.6l1.4,0.3c1.6,0.3,3.1,0.6,4.6,0.9l1.9,0.4l-0.6,1.6
			c1.8,0.4,3.6,0.8,5.5,1.2c2.2,0.5,4.4,0.9,6.7,1.5l4.2,1l0.7-1.5l1.4,0.3c1.5,0.3,3.1,0.7,4.6,1.1l2,0.5l-0.7,1.6
			c2.1,0.5,4.2,1.1,6.3,1.7c1.7,0.4,3.4,0.9,5.4,1.5c1.7,0.4,3.3,0.9,4.6,1.3c0.2,0,0.3,0.1,0.5,0.1l0.1,0l0.9-1.6l7.9,2.4l-0.9,1.6
			c0.5,0.2,1,0.3,1.5,0.5c1.6,0.5,3.8,1.2,5.9,1.9l0.2,0l0.1,0c0.1,0,0.2,0.1,0.3,0.1c0.3,0.1,0.8,0.3,1.2,0.4
			c0.4,0.2,0.8,0.3,1.2,0.4c2.2,0.7,4.5,1.6,6.7,2.4l1.1-1.6l1.2,0.4c1.5,0.5,3,1,4.4,1.6l2.1,0.8l-1.1,1.6c3.4,1.3,6.4,2.5,9.1,3.6
			c1.3,0.5,2.6,1.1,3.9,1.6c1.5,0.6,3,1.2,4.5,1.9l1.3-1.5l1.2,0.5c1.5,0.6,3,1.2,4.4,1.9l2.1,0.9l-1.3,1.5c1.1,0.5,2.3,1,3.4,1.5
			l2.6,1.2c1.6,0.7,3.3,1.5,5.1,2.3c0.1,0,0.3,0.2,0.5,0.3c2,0.9,4.1,2,6.3,3l1.5-1.5l1.1,0.5c1.5,0.7,2.9,1.4,4.4,2.2l2,1.1
			l-1.5,1.5c2.7,1.4,5.4,2.8,8.2,4.3c2.5,1.3,4.9,2.7,7.4,4.1c0.7,0.4,1.4,0.8,2.1,1.2c0.2,0.1,0.4,0.2,0.6,0.3l1.7-1.4l1.1,0.6
			c1.4,0.8,2.8,1.6,4.2,2.5l2.1,1.3l-1.7,1.4c3.1,1.8,6.6,3.9,10,6.1c1.9,1.2,3.6,2.3,5.4,3.5c1,0.7,2.1,1.3,3.1,2l1.9-1.3l1,0.6
			c1.4,0.9,2.8,1.8,4.1,2.7l2.1,1.4l-1.9,1.4c2.8,1.9,5.7,4,9.3,6.5c1.4,1,2.8,2,4.1,3c1.9,1.4,3.7,2.7,5.4,4l2.2-1.3l0.9,0.7
			c1.3,1,2.6,2,3.9,3l2,1.6l-2.2,1.3c3,2.3,5.4,4.3,7.6,6.1c0.9,0.8,1.8,1.5,2.7,2.3c0.1,0.1,0.2,0.2,0.4,0.3
			c0.1,0.1,0.2,0.2,0.3,0.3c2.5,2.1,5.2,4.3,8,6.7l2.4-1.1l2,1.8c0.9,0.8,1.7,1.5,2.6,2.3l1.9,1.8L835,172
			c3.7,3.3,7.5,6.8,11.6,10.7l4.5,4.4c1,0.9,1.9,1.9,2.9,2.8l2.6-0.9l6.3,6.3l-2.6,1c2.1,2.2,4.2,4.5,6.3,6.7c1.5,1.7,3,3.3,4.5,5
			c0.6,0.6,1.2,1.3,1.7,1.9c0.3,0.3,0.6,0.7,0.9,1c0.1,0.1,0.2,0.2,0.3,0.3c0.1,0.1,0.2,0.2,0.3,0.3c0.3,0.3,0.5,0.6,0.8,0.9
			l0.4,0.4c1.1,1.3,2.2,2.6,3.3,3.8l2.7-0.7l0.7,0.8c0.9,1,1.8,2.1,2.7,3.2l2.3,2.8l-2.7,0.7l0,0c0.1,0.1,0.2,0.2,0.3,0.3
			c0.1,0.1,0.1,0.2,0.2,0.3c1.5,1.7,2.9,3.5,4.3,5.2c0.7,0.8,1.3,1.7,2,2.5c0.7,0.9,1.4,1.7,2,2.6l4.4,5.6c0.1,0.1,0.2,0.2,0.3,0.4
			c0.1,0.1,0.2,0.2,0.3,0.4c1.5,1.9,3,4,4.4,5.9l2.9-0.5l5.3,7.3l-2.9,0.5c0,0.1,0.1,0.1,0.1,0.2h0l0.1,0.2c1.8,2.5,3.5,4.9,5,7.2
			c1.8,2.6,3.4,5,4.9,7.3c2.2,3.3,4.5,7,7,11l2.9-0.3l4.7,7.6l-3,0.3C929.9,287.7,930,287.9,930.2,288.1z M928,287.6l0.8,1.4
			c1.1,1.8,2.2,3.6,3.2,5.5c3.5,6,6.9,12.4,10.6,19.5H689.5l-3.9-4.9L928,287.6z M905.3,254.3l1-0.2l0.2,0.5
			c1.5,2.1,2.9,4.1,4.2,6.1c1.8,2.6,3.4,4.9,4.9,7.2c2.4,3.6,4.9,7.6,7.7,12.1l-243.9,21.6l-5.2-6.4L905.3,254.3z M882.7,223.9
			l0.3,0.3h0c1.3,1.6,2.7,3.2,4,4.8c0.7,0.8,1.3,1.6,2,2.5c0.7,0.9,1.4,1.7,2,2.5l4.4,5.6c0.1,0.1,0.1,0.2,0.2,0.3
			c0.1,0.1,0.2,0.3,0.3,0.4c1.7,2.2,3.4,4.5,5,6.6l-232.4,41.3l-4.4-5.4L882.7,223.9z M858.4,196.9c2,2.1,4,4.1,5.9,6.2
			c1.5,1.6,3,3.3,4.5,4.9c0.6,0.6,1.1,1.2,1.7,1.8c0.3,0.4,0.6,0.7,1,1.1l0.1,0.1c0.1,0.1,0.2,0.2,0.2,0.2c0.1,0.1,0.2,0.2,0.3,0.3
			c0.3,0.3,0.5,0.6,0.8,0.9l0.4,0.4c1.2,1.4,2.5,2.9,3.8,4.3L658.5,276l-3.8-4.7L858.4,196.9z M833.2,172.8
			c3.6,3.2,7.3,6.6,11.3,10.4l4.5,4.4c1,1,2.1,2,3.1,3l-202.8,74.1l-3.5-4.3L833.2,172.8z M807.7,151.5c2.3,1.8,4.8,3.8,7.5,6
			c0.9,0.7,1.8,1.4,2.7,2.2c0.1,0.1,0.2,0.1,0.2,0.2c0.1,0.1,0.3,0.3,0.5,0.4c2.6,2.1,5.2,4.2,8,6.7l-186,87l-3.2-3.9L807.7,151.5z
			 M782.1,132.9c2.8,1.9,5.8,4,9.3,6.5c1.4,1,2.7,2,4.1,3c1.9,1.3,3.6,2.6,5.3,3.9l-168.5,97.5l-3-3.7L782.1,132.9z M756.4,116.7
			c3.1,1.8,6.6,3.9,10.1,6.1c1.8,1.1,3.6,2.3,5.4,3.4c1,0.6,1.9,1.3,2.9,1.9L624.2,233.9l-2.9-3.6L756.4,116.7z M730.9,102.6
			c2.8,1.4,5.6,2.9,8.4,4.4c2.4,1.3,4.9,2.7,7.3,4c0.7,0.4,1.4,0.8,2.1,1.2c0.1,0.1,0.2,0.1,0.4,0.2L616.3,224.1l-3-3.6L730.9,102.6
			z M705.6,90.6c1.2,0.5,2.5,1.1,3.7,1.6l2.6,1.2l0.1,0c1.6,0.7,3.2,1.4,5,2.3l0.5,0.3c1.9,0.9,3.9,1.8,6,2.9L608.2,214.2l-3-3.7
			L705.6,90.6z M680.6,80.4c3.5,1.3,6.6,2.5,9.4,3.7c1.3,0.5,2.6,1,3.9,1.6c1.3,0.6,2.6,1.1,4,1.7L600,204.2l-0.1-0.1l-2.8,2.4
			l-0.4,0.5l-12.5,11.2L680.6,80.4z M655.9,71.8c0.6,0.2,1.2,0.4,1.8,0.6l0.1,0c1.6,0.5,3.8,1.2,5.9,1.9l0.4,0.2h0.2
			c0.4,0.1,0.7,0.2,1.1,0.4c0.4,0.2,0.9,0.3,1.3,0.5c2.1,0.7,4.1,1.4,6.2,2.2L557.9,242l-0.2,0.3l0.1-0.3L655.9,71.8z M631.4,64.8
			c2.2,0.5,4.4,1.1,6.6,1.8c1.6,0.4,3.3,0.9,5.4,1.5c1.6,0.4,3.3,0.9,4.5,1.3l0.1,0l-97.4,169.1l-0.2,0.3l0.1-0.3L631.4,64.8z
			 M607.3,59.2c1.9,0.4,3.8,0.8,5.8,1.2c2.2,0.4,4.3,0.9,6.6,1.5l3.9,1l-78.1,167.8l-0.3-0.4L607.3,59.2z M583.3,54.9
			c0.3,0,0.5,0.1,0.8,0.1l0.2,0c1.9,0.3,3.8,0.6,5.7,0.9l0.9,0.1c0.2,0,0.3,0,0.5,0.1c0.2,0,0.4,0.1,0.6,0.1l0.3,0.1
			c2.3,0.4,4.6,0.8,7,1.2L539.6,222l-0.7-1L583.3,54.9z M559.6,51.9c0.8,0.1,1.5,0.2,2.3,0.2c1.7,0.2,3.4,0.3,5.1,0.6
			c0.2,0,0.3,0,0.5,0.1l0.5,0.1c0.1,0,0.1,0,0.2,0c1.4,0.2,2.9,0.4,4.3,0.5l0.4,0c0.8,0.1,1.7,0.2,2.6,0.3L533,212.1l-1.3-1.9
			L559.6,51.9z M536,50c4.9,0.3,10.1,0.6,15.6,1.1l-26.2,149.4l-2.2-3.3L536,50z M522.2,49.5l3.7,0.1c0.4,0,0.8,0,1.2,0
			c0.3,0,0.5,0,0.8,0l-11.9,137l-3.5-5.3l-0.1-132C515.6,49.3,519,49.4,522.2,49.5z M489.1,49.7l0.5,0c2.4-0.1,4.7-0.2,7.1-0.2
			c2.6-0.1,5.2-0.1,7.8-0.1l0.1,120l-5.1-7.6l-0.8-1.1l-9.8-110.8C489,49.7,489,49.7,489.1,49.7z M480.9,50.1l8.9,100.5l-5.5,7.4
			L465.4,51.2C471.1,50.7,476.1,50.4,480.9,50.1z M452.7,52.5c1.3-0.2,2.7-0.3,4.1-0.5c0.2,0,0.4,0,0.6-0.1l20.3,114.7l-4.2,5.6
			L441.7,53.9C445.9,53.3,449.4,52.9,452.7,52.5z M419.6,57.5l0.1,0c1.2-0.3,2.5-0.5,3.8-0.7l0.2,0c0.1,0,0.2,0,0.3-0.1l3.3-0.5
			c2.2-0.4,4.4-0.7,6.5-1l33.7,125.3l-3.2,4.3L417.9,57.8C418.5,57.7,419,57.6,419.6,57.5z M394.4,62.9c1.4-0.4,2.9-0.7,4.3-1l0.2,0
			c0.1,0,0.2-0.1,0.3-0.1c0.2,0,0.3-0.1,0.5-0.1l0.3-0.1c1.2-0.3,2.3-0.5,3.4-0.7l0.3-0.1c0.1,0,0.2,0,0.3-0.1c2-0.4,4-0.9,6-1.3
			l48.5,133l-2.6,3.5L393.9,63C394,63,394.2,62.9,394.4,62.9z M377.2,67.3c2.8-0.8,5.8-1.6,8.7-2.3l64.5,138.1l-2.1,2.7L369.6,69.5
			C372,68.8,374.6,68,377.2,67.3z M349.3,76.1l5.2-1.8c2.4-0.8,4.9-1.6,7.3-2.4l81.4,140.8l-1.7,2.3L345,77.6
			C346.4,77.1,347.8,76.6,349.3,76.1z M328.4,83.8l0.1-0.1c0.1,0,0.2-0.1,0.2-0.1l0.6-0.2c2.4-1,4.9-1.9,7.8-3l99.1,141.4l-0.4,0.6
			l-5.1-3.4L320.1,87.3C322.6,86.2,325.5,85,328.4,83.8z M303.3,94.7c2.8-1.3,5.8-2.7,9.2-4.2l94.6,112.7l-11.9-7.9l-1.6,1.9
			L295,98.7C297.8,97.3,300.6,96,303.3,94.7z M287.4,102.5l100.9,100.8l-4.2,4.8L269.6,112C275.9,108.5,281.8,105.3,287.4,102.5z
			 M252,122.5l0.2-0.1c0,0,0.1,0,0.1-0.1l0.3-0.2c3-1.9,6.1-3.7,9.2-5.5l0.1-0.1c0.1-0.1,0.2-0.2,0.4-0.2L379,214.2l-4.2,4.8
			L244,127.5C246.9,125.6,249.5,124,252,122.5z M223.1,142c1.6-1.2,3.2-2.3,4.8-3.5l0.8-0.5c2.7-1.9,5.5-3.8,8.2-5.6l132.7,92.9
			l-4.3,4.9l-146.9-84.8C220,144.2,221.5,143.1,223.1,142z M195.1,163.9l4.7-3.9c1.1-0.9,2-1.7,2.9-2.4l0.1-0.1
			c1.3-1.1,2.6-2.1,3.9-3.1l0.7-0.6c1.3-1.1,2.6-2.1,4.1-3.2l0.1,0l148.4,85.7l-4.5,5.2l-162.6-75.8
			C193.6,165.1,194.4,164.5,195.1,163.9z M186.3,171.5L350,247.8l-4.8,5.6l-177.5-64.6C173.7,182.8,180,177,186.3,171.5z M146,211.5
			c1.2-1.4,2.4-2.8,3.7-4.1l0.2-0.2c0.1-0.1,0.1-0.2,0.2-0.3l0.1-0.1c0.3-0.4,0.7-0.8,1.1-1.1l0.1-0.1c2.1-2.3,4.3-4.6,6.5-6.8
			c1.2-1.3,2.3-2.4,3.5-3.7l178.2,64.8l-5.3,6.2l-191.3-51.2C143.9,213.8,145,212.6,146,211.5z M137.1,221.7l191.3,51.2l-6.1,7
			l-203.1-35.8C124.7,236.8,130.7,229.3,137.1,221.7z M99.7,272.1c1.4-2.2,3.1-4.7,4.7-7.2c1.4-2.2,3-4.5,4.9-7.1
			c1.5-2.1,3-4.3,4.6-6.4L316.2,287l-7.1,8.2L96.8,276.7C97.7,275.1,98.7,273.6,99.7,272.1z M302.7,302.7L293,314H75.4
			c1.2-2.3,2.4-4.5,3.5-6.8L79,307c0.1-0.1,0.1-0.3,0.2-0.4l0.1-0.1c0-0.1,0.1-0.2,0.2-0.3l0.8-1.6c0.8-1.5,1.5-2.8,2.3-4.2
			c1.7-3.1,3.3-5.9,4.8-8.4c1.2-2.1,2.5-4.2,3.7-6.3l0.2-0.3c0-0.1,0.1-0.2,0.2-0.3c0.1-0.2,0.3-0.5,0.4-0.7c0-0.1,0.1-0.1,0.1-0.2
			L302.7,302.7z"/>
	</g>
	<g>
		<g>
			<polygon class="st0" points="440.5,230.7 437.5,228.6 438.1,227.8 			"/>
		</g>
	</g>
	<g>
		<polygon class="st0" points="491.3,171.6 441.1,281.2 404.7,235.6 364.3,271.5 363.6,270.8 404.7,220.6 440.9,247.8 490.5,171.2 
					"/>
	</g>
</g>
</svg>
