<?xml version="1.0" encoding="utf-8"?>
<!-- Generator: Adobe Illustrator 22.0.1, SVG Export Plug-In . SVG Version: 6.00 Build 0)  -->
<svg version="1.1" id="Livello_1" xmlns="http://www.w3.org/2000/svg" xmlns:xlink="http://www.w3.org/1999/xlink" x="0px" y="0px"
	 viewBox="0 0 1060 333" style="enable-background:new 0 0 1060 333;" xml:space="preserve">
<style type="text/css">
	.st0{fill:#004A22;}
	.st1{fill:#FFEA00;}
</style>
<g>
	<g>
		<path class="st0" d="M278.2,5.8h39.3v7.9h-29.9V38h27.6v7.8h-27.6v33.1h-9.4V5.8z"/>
		<path class="st0" d="M348.5,55.9l-7.6,23h-9.8L356,5.8h11.4l24.9,73.1h-10.1l-7.8-23H348.5z M372.4,48.5l-7.2-21
			c-1.6-4.8-2.7-9.1-3.8-13.3h-0.2c-1.1,4.3-2.3,8.8-3.7,13.2l-7.2,21.1H372.4z"/>
		<path class="st0" d="M428.1,13.9h-22.2v-8h54.1v8h-22.3v65h-9.5V13.9z"/>
		<path class="st0" d="M495.7,13.9h-22.2v-8h54.1v8h-22.3v65h-9.5V13.9z"/>
		<path class="st0" d="M608,41.6c0,25.1-15.3,38.5-33.9,38.5c-19.3,0-32.8-15-32.8-37.1c0-23.2,14.4-38.4,33.9-38.4
			C595.1,4.6,608,19.9,608,41.6z M551.3,42.8c0,15.6,8.5,29.6,23.3,29.6c15,0,23.4-13.8,23.4-30.4c0-14.5-7.6-29.7-23.3-29.7
			C559.1,12.3,551.3,26.8,551.3,42.8z"/>
		<path class="st0" d="M621.5,6.8c4.8-1,11.6-1.5,18.1-1.5c10.1,0,16.6,1.8,21.1,6c3.7,3.3,5.7,8.2,5.7,13.9c0,9.6-6.1,16-13.8,18.6
			v0.3c5.6,2,9,7.2,10.7,14.7c2.4,10.2,4.1,17.2,5.6,20.1h-9.8c-1.2-2.1-2.8-8.3-4.9-17.5c-2.2-10.1-6.1-13.9-14.6-14.2H631v31.7
			h-9.4V6.8z M631,40.1h9.6c10.1,0,16.5-5.5,16.5-13.9c0-9.4-6.8-13.5-16.8-13.7c-4.6,0-7.8,0.4-9.3,0.9V40.1z"/>
		<path class="st0" d="M692.1,5.8v73.1h-9.4V5.8H692.1z"/>
		<path class="st0" d="M723,55.9l-7.6,23h-9.8l24.8-73.1h11.4l24.9,73.1h-10.1l-7.8-23H723z M747,48.5l-7.2-21
			c-1.6-4.8-2.7-9.1-3.8-13.3h-0.2c-1.1,4.3-2.3,8.8-3.7,13.2L725,48.5H747z"/>
	</g>
	<g>
		<path class="st0" d="M5.6,114.5c9.5-2,23.2-3,36.2-3c20.2,0,33.2,3.7,42.3,11.9c7.4,6.5,11.5,16.5,11.5,27.7
			c0,19.3-12.1,32.1-27.5,37.3v0.6c11.3,3.9,18,14.3,21.5,29.5c4.8,20.4,8.2,34.5,11.3,40.1H81.2c-2.4-4.1-5.6-16.7-9.8-34.9
			c-4.3-20.2-12.1-27.7-29.3-28.4H24.4v63.3H5.6V114.5z M24.4,181.1h19.3c20.2,0,33-11.1,33-27.7c0-18.9-13.7-27.1-33.6-27.3
			c-9.1,0-15.6,0.9-18.6,1.7V181.1z"/>
		<path class="st0" d="M247.7,184.1c0,50.3-30.6,77-67.9,77c-38.6,0-65.7-29.9-65.7-74.1c0-46.4,28.8-76.7,67.9-76.7
			C221.9,110.2,247.7,140.7,247.7,184.1z M134.3,186.5c0,31.2,16.9,59.2,46.6,59.2c29.9,0,46.8-27.5,46.8-60.7
			c0-29.1-15.2-59.4-46.6-59.4C149.9,125.6,134.3,154.4,134.3,186.5z"/>
		<path class="st0" d="M269.6,235.7c8.5,5.2,20.8,9.5,33.8,9.5c19.3,0,30.6-10.2,30.6-24.9c0-13.7-7.8-21.5-27.5-29.1
			c-23.8-8.5-38.6-20.8-38.6-41.4c0-22.8,18.9-39.7,47.3-39.7c15,0,25.8,3.5,32.3,7.2l-5.2,15.4c-4.8-2.6-14.5-6.9-27.7-6.9
			c-19.9,0-27.5,11.9-27.5,21.9c0,13.7,8.9,20.4,29.1,28.2c24.7,9.5,37.3,21.5,37.3,42.9c0,22.5-16.7,42.1-51.2,42.1
			c-14.1,0-29.5-4.1-37.3-9.3L269.6,235.7z"/>
		<path class="st0" d="M402.7,212.7l-15.2,46H368l49.6-146.1h22.8l49.9,146.1h-20.2l-15.6-46H402.7z M450.6,198l-14.3-42.1
			c-3.3-9.5-5.4-18.2-7.6-26.7h-0.4c-2.2,8.7-4.6,17.6-7.4,26.4L406.6,198H450.6z"/>
		<path class="st0" d="M511.7,114.5c8.2-1.7,21.2-3,34.5-3c18.9,0,31,3.3,40.1,10.6c7.6,5.6,12.1,14.3,12.1,25.8
			c0,14.1-9.3,26.4-24.7,32.1v0.4c13.9,3.5,30.1,15,30.1,36.6c0,12.6-5,22.1-12.4,29.3c-10.2,9.3-26.7,13.7-50.5,13.7
			c-13,0-23-0.9-29.3-1.7V114.5z M530.6,174.3h17.1c19.9,0,31.7-10.4,31.7-24.5c0-17.1-13-23.8-32.1-23.8c-8.7,0-13.7,0.6-16.7,1.3
			V174.3z M530.6,244.4c3.7,0.7,9.1,0.9,15.8,0.9c19.5,0,37.5-7.2,37.5-28.4c0-19.9-17.1-28.2-37.7-28.2h-15.6V244.4z"/>
		<path class="st0" d="M704.9,190.2h-56.8v52.7h63.3v15.8h-82.2V112.5h78.9v15.8h-60.1v46.2h56.8V190.2z"/>
		<path class="st0" d="M735.9,112.5h18.9v130.3h62.4v15.8h-81.3V112.5z"/>
		<path class="st0" d="M838.2,112.5h18.9v130.3h62.4v15.8h-81.3V112.5z"/>
		<path class="st0" d="M964.2,212.7l-15.2,46h-19.5l49.6-146.1h22.8l49.9,146.1h-20.2l-15.6-46H964.2z M1012.1,198l-14.3-42.1
			c-3.3-9.5-5.4-18.2-7.6-26.7h-0.4c-2.2,8.7-4.6,17.6-7.4,26.4L968.1,198H1012.1z"/>
	</g>
	<g>
		<g>
			<path class="st0" d="M462.7,295.4h-0.1l-6.1,3.3l-0.9-3.6l7.7-4.1h4.1v35.2h-4.6V295.4z"/>
			<path class="st0" d="M493.8,322.8c1,0.1,2.2,0,3.8-0.2c2.8-0.4,5.4-1.5,7.4-3.4c2.3-2.1,4-5.2,4.7-9.4h-0.2
				c-1.9,2.4-4.8,3.8-8.3,3.8c-6.3,0-10.4-4.8-10.4-10.8c0-6.7,4.8-12.5,12-12.5c7.2,0,11.6,5.9,11.6,14.8c0,7.7-2.6,13.2-6.1,16.5
				c-2.7,2.7-6.4,4.3-10.2,4.7c-1.7,0.3-3.3,0.3-4.4,0.3V322.8z M495.5,302.6c0,4.4,2.7,7.5,6.8,7.5c3.2,0,5.7-1.6,6.9-3.7
				c0.3-0.4,0.4-1,0.4-1.7c0-6-2.2-10.6-7.2-10.6C498.4,294,495.5,297.6,495.5,302.6z"/>
			<path class="st0" d="M532.4,322.8c1,0.1,2.2,0,3.8-0.2c2.8-0.4,5.4-1.5,7.4-3.4c2.3-2.1,4-5.2,4.7-9.4h-0.2
				c-1.9,2.4-4.8,3.8-8.3,3.8c-6.3,0-10.4-4.8-10.4-10.8c0-6.7,4.8-12.5,12-12.5c7.2,0,11.6,5.9,11.6,14.8c0,7.7-2.6,13.2-6.1,16.5
				c-2.7,2.7-6.4,4.3-10.2,4.7c-1.7,0.3-3.3,0.3-4.4,0.3V322.8z M534.2,302.6c0,4.4,2.7,7.5,6.8,7.5c3.2,0,5.7-1.6,6.9-3.7
				c0.3-0.4,0.4-1,0.4-1.7c0-6-2.2-10.6-7.2-10.6C537,294,534.2,297.6,534.2,302.6z"/>
			<path class="st0" d="M568.3,326.2v-2.9l3.7-3.6c9-8.6,13.1-13.1,13.1-18.4c0-3.6-1.7-6.9-7-6.9c-3.2,0-5.9,1.6-7.5,3l-1.5-3.4
				c2.4-2.1,5.9-3.6,10-3.6c7.6,0,10.8,5.2,10.8,10.2c0,6.5-4.7,11.8-12.1,18.9l-2.8,2.6v0.1h15.8v4H568.3z"/>
		</g>
		<g>
			<rect x="404.8" y="305.6" class="st1" width="36.9" height="6.5"/>
			<rect x="604.2" y="305.6" class="st1" width="36.9" height="6.5"/>
		</g>
	</g>
</g>
</svg>
